<svg xmlns="http://www.w3.org/2000/svg" fill="none" viewBox="0 0 540 251">
  <defs/>
  <g opacity=".1">
    <path fill="url(#paint0_linear)" d="M27.5 28.6c-10.2 13.3 3 24.7 24.2 24.5 21.3-.3 23.2 49 45.6 64.8 22.3 15.6 39.6 29.8 49.2 25.5 9.6-4.3-32.7-21.3-20.5-30.7s18.6 3.5 25.5 0c7-3.4-2-17.8 9.4-24.7 11.4-7 26-11.2 21.8-20.8-4.3-9.6-25.8-24.8-32-19.2-6 5.6 4 18.4-10.6 15.4-14.6-2.9-11.2-19.7 4.8-28.7S113.2 18 99.4 30c-13.8 12-60.4-16.5-71.9-1.5z"/>
    <path fill="url(#paint1_linear)" d="M152 144.5c-7.5 8-3.2 10.5-7.2 19.1s14.5 17.3 15.1 24.2c.7 7-9.2 37-6.7 48.2 2.5 11.2 9 18 14 13.7 5.1-4.2-4.7-20.8 13-31.1 17.6-10.3 34.6-38.1 33.8-47.4-.9-9.2-16.6-4.8-21.3-12.2-4.6-7.3-30.6-25.3-40.7-14.5z"/>
    <path fill="url(#paint2_linear)" d="M222.7 106.2C208 120.6 202 134.5 212 146.7c10 12.2 31.2 1.4 35 9 3.8 7.8-.7 55.1 16.7 59 17.4 3.8 30.6-27.4 30.8-32.4.2-5-3.4-13.8 3.6-19.3 7-5.4 13.1-13.3 11-19.7-2-6.3-11.5 5-18-6.8s-2.3-23-12.2-24c-10-.9-26.2-.2-31.9-7.7s-18.7-4.2-24.4 1.4z"/>
    <path fill="url(#paint3_linear)" fill-rule="evenodd" d="M436.9 219.4c1.7.2 5 .5 5.7-.4 3-3.8 1.8-17.5 0-20.5-2.2-4-8.5-12.4-12.5-13.1-3.4-.6-10-1.1-13 1.3-2.9 2.3-7 7.7-8 11.8-1.3 5.2.7 11 4.9 12.9 1.9.9 4 .7 6 .5 2-.1 4.1-.3 6 .6 1.1.6 2 1.7 2.8 2.7l1.6 1.9a9.2 9.2 0 005.8 2.2l.7.1zm21.3 4l.2-.8c1.3-4.3.7-6.8-.1-7.8-2.3-2.8-3-1.4-3.9.9l-.2.6c-1 2.7-2.2 6.2-.6 8.9 2.7 4.4 3.4 2 4.6-1.9z" clip-rule="evenodd"/>
    <path fill="url(#paint4_linear)" fill-rule="evenodd" d="M222.6 88c-2.5 7.5 9.4 10.4 19.1 2 6-5 10.1-1 14.7 3.4 3 2.9 6 5.8 9.9 6.6 3.1.7 6.6.8 10 .8 7 .2 13 .4 13 5.5 0 7.6 3.7 31.5 13 31.9 9.4.3 23.5-7 22-13-1.4-6.2 9.8-7.3 14.2-.4 1.6 2.6 3.4 6.8 5.2 10.9 2.7 6.4 5.4 12.7 7.4 12.4 1.1-.2 2.4-3 4.1-6.5 3.2-6.7 7.6-16 14-14.3 4.3 1.1 6 8.6 7.8 16.4 2.2 9.7 4.6 20.1 12.4 20.1 6.7 0 6.8-7.1 7-15.7.3-9.6.6-21 10-26.4 17.6-10.3 39.7-41.4 40-49.7v-4.6c-.3-5.4-.5-8.5 9-10.2 6.5-1.2 8 3.7 9.3 8.2 1.1 3.8 2.1 7.3 6 6.6 3.5-.6 5.4-3.6 7.4-7 2.7-4.3 5.9-9.3 13.8-10.7 14.1-2.5 26-5 23.8-13-1.8-6.9-16.6-7.8-29.7-8.7-2 0-4-.2-6-.4-14-1-73-6.8-76.5-17.3-3.6-10.5-39 3.4-54.6 13-15.5 9.4-47.2 15.5-59.9 7.6-12.6-8-32.4-6.9-41.6 9.4-3.4 5.9-7.1 11.8-10.7 17.5-6.3 10-12 19.1-14.1 25.5zm168.7 81.5h.4c5 .4 12 1 12.7 5.3.7 4-5.5 3.1-10 2.4-3.8-.5-10.1-2.6-9.4-6 .5-2 4.7-1.8 6-1.7h.3zm43.8-63c-3.5 3.5-12 12-2 11 5.4 0 9.4-4.7 13-9l2.7-3 1.4-1.4c3.5-3.4 8.5-8.2.6-9.2-5-.6-9.1 4-12.6 8l-2.3 2.7-.8.9z" clip-rule="evenodd"/>
    <path fill="url(#paint5_linear)" d="M165.1 20.9c-1.9 4.8 15-.6 20.3 6.6 5.3 7.3 6.4 38.7 22 39 15.5.4-2-10.4 12.9-16.2 14.9-5.8 22.4-16.3 22.4-26.4S255.1 12 254.2 5.5c-1-6.6-78.3-12.6-89.1 15.4z"/>
  </g>
  <path fill="#E3B0E8" d="M439 234a24 24 0 100-48 24 24 0 000 48z"/>
  <path fill="#B500C2" d="M415 196h48v30h-48z" filter="url(#filter0_d)"/>
  <path fill="#53007A" fill-rule="evenodd" d="M416.5 190a1.5 1.5 0 00-1.5 1.5v4.5h48v-4.5a1.5 1.5 0 00-1.5-1.5h-45zm42 10.5h-18v21h18v-21z" clip-rule="evenodd"/>
  <circle cx="419.1" cy="193" r="1.1" fill="#A8009C"/>
  <path fill="#FFE9AF" d="M277 85a24 24 0 100-48 24 24 0 000 48z"/>
  <path fill="#FED360" d="M253 47h48v28.5a1.5 1.5 0 01-1.5 1.5h-45a1.5 1.5 0 01-1.5-1.5V47z" filter="url(#filter1_d)"/>
  <path fill="#E68942" d="M278.5 51.5h18v21h-18v-21zm-25.5-9a1.5 1.5 0 011.5-1.5h45a1.5 1.5 0 011.5 1.5V47h-48v-4.5z"/>
  <circle cx="257.1" cy="44" r="1.1" fill="#FED360"/>
  <path fill="#79EDC8" d="M399 125a24 24 0 100-48 24 24 0 000 48z"/>
  <path fill="#3EC99D" d="M375 87h48v30h-48z" filter="url(#filter2_d)"/>
  <path fill="#007275" d="M376.5 81a1.5 1.5 0 00-1.5 1.5V87h48v-4.5a1.5 1.5 0 00-1.5-1.5h-45zm42 10.5h-18v21h18v-21z"/>
  <circle cx="379.1" cy="84" r="1.1" fill="#3EC99D"/>
  <path fill="#91D7F5" d="M183 178a24 24 0 100-48 24 24 0 000 48z"/>
  <path fill="#3FB1E0" d="M159 140h48v30h-48z" filter="url(#filter3_d)"/>
  <path fill="#006DAD" d="M160.5 134a1.5 1.5 0 00-1.5 1.5v4.5h48v-4.5a1.5 1.5 0 00-1.5-1.5h-45zm42 10.5h-18v21h18v-21z"/>
  <circle cx="163.1" cy="137" r="1.1" fill="#3FB1E0"/>
  <path fill="#FFA6B4" d="M119 93a24 24 0 100-48 24 24 0 000 48z"/>
  <path fill="#FA6E84" d="M95 55h48v30H95z" filter="url(#filter4_d)"/>
  <path fill="#AB4B71" d="M96.5 49a1.5 1.5 0 00-1.5 1.5V55h48v-4.5a1.5 1.5 0 00-1.5-1.5h-45zm42 10.5h-18v21h18v-21z"/>
  <circle cx="99.1" cy="52" r="1.1" fill="#FA6E84"/>
  <path fill="#FFBD7C" d="M295 205a24 24 0 100-48 24 24 0 000 48z"/>
  <path fill="#F5874A" d="M271 167h48v30h-48z" filter="url(#filter5_d)"/>
  <path fill="#D64B2B" d="M272.5 161a1.5 1.5 0 00-1.5 1.5v4.5h48v-4.5a1.5 1.5 0 00-1.5-1.5h-45zm42 10.5h-18v21h18v-21z"/>
  <circle cx="275.1" cy="164" r="1.1" fill="#F5874A"/>
  <path fill="#fff" d="M259 54.5a1.5 1.5 0 100-3 1.5 1.5 0 000 3zm3-2.3h12v1.5h-12v-1.5zm-1.5 6.8a1.5 1.5 0 11-3 0 1.5 1.5 0 013 0zm1.5-.8h12v1.5h-12v-1.5zm12 6.8h-16.5v7.5H274V65zm108.5 28a1.5 1.5 0 11-3 0 1.5 1.5 0 013 0zm13.5-.8h-12v1.5h12v-1.5zm-15 8.3a1.5 1.5 0 100-3 1.5 1.5 0 000 3zm15-2.3h-12v1.5h12v-1.5zm-16.5 6.8H396v7.5h-16.5V105zm43 97a1.5 1.5 0 11-3 0 1.5 1.5 0 013 0zm13.5-.8h-12v1.6h12v-1.6zm-15 8.3a1.5 1.5 0 100-3 1.5 1.5 0 000 3zm15-2.3h-12v1.6h12v-1.6zm-16.5 6.8H436v7.5h-16.5V214zm-141-41a1.5 1.5 0 11-3 0 1.5 1.5 0 013 0zm13.5-.8h-12v1.6h12v-1.6zm-15 8.3a1.5 1.5 0 100-3 1.5 1.5 0 000 3zm15-2.3h-12v1.6h12v-1.6zm-16.5 6.8H292v7.5h-16.5V185zM101 62.5a1.5 1.5 0 100-3 1.5 1.5 0 000 3zm3-2.3h12v1.5h-12v-1.5zm-1.5 6.8a1.5 1.5 0 11-3 0 1.5 1.5 0 013 0zm1.5-.8h12v1.5h-12v-1.5zm12 6.8H99.5v7.5H116V73zm50.5 73a1.5 1.5 0 11-3 0 1.5 1.5 0 013 0zm13.5-.8h-12v1.6h12v-1.6zm-15 8.3a1.5 1.5 0 100-3 1.5 1.5 0 000 3zm15-2.3h-12v1.6h12v-1.6zm-16.5 6.8H180v7.5h-16.5V158z"/>
  <path fill="#7D8589" d="M276.8 30a.8.8 0 00-.8.8v8.4a.8.8 0 00.8.8h.4a.8.8 0 00.8-.8v-8.4a.8.8 0 00-.8-.8h-.4zm162 150a.8.8 0 00-.8.8v7.4a.8.8 0 00.8.8h.4a.8.8 0 00.8-.8v-7.4a.8.8 0 00-.8-.8h-.4zM398 70.8a.8.8 0 01.8-.8h.4a.8.8 0 01.8.8v8.4a.8.8 0 01-.8.8h-.4a.8.8 0 01-.8-.8v-8.4zM182.8 123a.8.8 0 00-.8.8v8.4a.8.8 0 00.8.8h.4a.8.8 0 00.8-.8v-8.4a.8.8 0 00-.8-.8h-.4zM118 39.8a.8.8 0 01.8-.8h.4a.8.8 0 01.8.8v7.4a.8.8 0 01-.8.8h-.4a.8.8 0 01-.8-.8v-7.4zM294.8 150a.8.8 0 00-.8.8v8.4a.8.8 0 00.8.8h.4a.8.8 0 00.8-.8v-8.4a.8.8 0 00-.8-.8h-.4z"/>
  <path fill="#0E1E25" d="M277 32a8 8 0 100-16 8 8 0 000 16zm162 149a8 8 0 100-16 8 8 0 000 16zM407 64a8 8 0 11-16 0 8 8 0 0116 0zm-224 61a8 8 0 100-16 8 8 0 000 16zm-56-93a8 8 0 11-16 0 8 8 0 0116 0zm168 120a8 8 0 100-16 8 8 0 000 16z"/>
  <path fill="#E9EBEB" d="M277.7 21l-2.2 5.7.8.3 2.2-5.7-.8-.3zm1.9 5.4l-.6-.6 2.2-2-2.2-2 .6-.6 2.2 2a.7.7 0 010 1.1l-2.2 2zm-7.4-2l2.2 2 .5-.6-2.1-2 2.1-2-.5-.6-2.2 2a.7.7 0 000 1.1zM439.7 170l-2.2 5.7.8.3 2.2-5.7-.8-.3zm1.9 5.4l-.6-.6 2.2-2-2.2-2 .6-.6 2.2 2a.7.7 0 010 1.1l-2.2 2zm-7.4-2l2.2 2 .5-.6-2.1-2 2.1-2-.5-.6-2.2 2a.7.7 0 000 1.1zM397.5 66.6l2.2-5.7.8.3-2.2 5.7-.8-.3zm3.5-.9l.6.6 2.2-2a.7.7 0 000-1.2l-2.2-2-.6.5 2.2 2-2.2 2.1zm-4.6.6l-2.2-2a.7.7 0 010-1.2l2.2-2 .5.5-2.1 2 2.1 2.1-.5.6zM183.7 114l-2.2 5.7.8.3 2.2-5.7-.8-.3zm1.9 5.4l-.6-.6 2.2-2-2.2-2 .6-.6 2.2 2a.7.7 0 010 1.1l-2.2 2zm-7.4-2l2.2 2 .5-.6-2.1-2 2.1-2-.5-.6-2.2 2a.7.7 0 000 1.1zm-60.7-82.7l2.2-5.7.8.3-2.2 5.7-.8-.3zm3.5-.9l.6.6 2.2-2a.7.7 0 000-1.2l-2.2-2-.6.5 2.2 2-2.2 2.1zm-4.6.6l-2.2-2a.7.7 0 010-1.2l2.2-2 .5.5-2.1 2 2.1 2.1-.5.6zM295.7 141l-2.2 5.7.8.3 2.2-5.7-.8-.3zm1.9 5.4l-.6-.6 2.2-2-2.2-2 .6-.6 2.2 2a.7.7 0 010 1.1l-2.2 2zm-7.4-2l2.2 2 .5-.6-2.1-2 2.1-2-.5-.6-2.2 2a.7.7 0 000 1.1z"/>
  <defs>
    <linearGradient id="paint0_linear" x1="24" x2="183.4" y1="144.2" y2="144.2" gradientUnits="userSpaceOnUse">
      <stop stop-color="#680E88"/>
      <stop offset="1" stop-color="#01D4C6"/>
    </linearGradient>
    <linearGradient id="paint1_linear" x1="144.2" x2="214" y1="251" y2="251" gradientUnits="userSpaceOnUse">
      <stop stop-color="#680E88"/>
      <stop offset="1" stop-color="#01D4C6"/>
    </linearGradient>
    <linearGradient id="paint2_linear" x1="207.1" x2="309.7" y1="215" y2="215" gradientUnits="userSpaceOnUse">
      <stop stop-color="#680E88"/>
      <stop offset="1" stop-color="#01D4C6"/>
    </linearGradient>
    <linearGradient id="paint3_linear" x1="401" x2="452.7" y1="220.4" y2="220.4" gradientUnits="userSpaceOnUse">
      <stop stop-color="#680E88"/>
      <stop offset="1" stop-color="#01D4C6"/>
    </linearGradient>
    <linearGradient id="paint4_linear" x1="222.3" x2="512.4" y1="177.5" y2="177.5" gradientUnits="userSpaceOnUse">
      <stop stop-color="#680E88"/>
      <stop offset="1" stop-color="#01D4C6"/>
    </linearGradient>
    <linearGradient id="paint5_linear" x1="165" x2="254.2" y1="66.6" y2="66.6" gradientUnits="userSpaceOnUse">
      <stop stop-color="#680E88"/>
      <stop offset="1" stop-color="#01D4C6"/>
    </linearGradient>
    <filter id="filter0_d" width="64" height="46" x="407" y="190" color-interpolation-filters="sRGB" filterUnits="userSpaceOnUse">
      <feFlood flood-opacity="0" result="BackgroundImageFix"/>
      <feColorMatrix in="SourceAlpha" values="0 0 0 0 0 0 0 0 0 0 0 0 0 0 0 0 0 0 127 0"/>
      <feOffset dy="2"/>
      <feGaussianBlur stdDeviation="4"/>
      <feColorMatrix values="0 0 0 0 0.054902 0 0 0 0 0.117647 0 0 0 0 0.145098 0 0 0 0.16 0"/>
      <feBlend in2="BackgroundImageFix" result="effect1_dropShadow"/>
      <feBlend in="SourceGraphic" in2="effect1_dropShadow" result="shape"/>
    </filter>
    <filter id="filter1_d" width="64" height="46" x="245" y="41" color-interpolation-filters="sRGB" filterUnits="userSpaceOnUse">
      <feFlood flood-opacity="0" result="BackgroundImageFix"/>
      <feColorMatrix in="SourceAlpha" values="0 0 0 0 0 0 0 0 0 0 0 0 0 0 0 0 0 0 127 0"/>
      <feOffset dy="2"/>
      <feGaussianBlur stdDeviation="4"/>
      <feColorMatrix values="0 0 0 0 0.054902 0 0 0 0 0.117647 0 0 0 0 0.145098 0 0 0 0.16 0"/>
      <feBlend in2="BackgroundImageFix" result="effect1_dropShadow"/>
      <feBlend in="SourceGraphic" in2="effect1_dropShadow" result="shape"/>
    </filter>
    <filter id="filter2_d" width="64" height="46" x="367" y="81" color-interpolation-filters="sRGB" filterUnits="userSpaceOnUse">
      <feFlood flood-opacity="0" result="BackgroundImageFix"/>
      <feColorMatrix in="SourceAlpha" values="0 0 0 0 0 0 0 0 0 0 0 0 0 0 0 0 0 0 127 0"/>
      <feOffset dy="2"/>
      <feGaussianBlur stdDeviation="4"/>
      <feColorMatrix values="0 0 0 0 0.054902 0 0 0 0 0.117647 0 0 0 0 0.145098 0 0 0 0.16 0"/>
      <feBlend in2="BackgroundImageFix" result="effect1_dropShadow"/>
      <feBlend in="SourceGraphic" in2="effect1_dropShadow" result="shape"/>
    </filter>
    <filter id="filter3_d" width="64" height="46" x="151" y="134" color-interpolation-filters="sRGB" filterUnits="userSpaceOnUse">
      <feFlood flood-opacity="0" result="BackgroundImageFix"/>
      <feColorMatrix in="SourceAlpha" values="0 0 0 0 0 0 0 0 0 0 0 0 0 0 0 0 0 0 127 0"/>
      <feOffset dy="2"/>
      <feGaussianBlur stdDeviation="4"/>
      <feColorMatrix values="0 0 0 0 0.054902 0 0 0 0 0.117647 0 0 0 0 0.145098 0 0 0 0.16 0"/>
      <feBlend in2="BackgroundImageFix" result="effect1_dropShadow"/>
      <feBlend in="SourceGraphic" in2="effect1_dropShadow" result="shape"/>
    </filter>
    <filter id="filter4_d" width="64" height="46" x="87" y="49" color-interpolation-filters="sRGB" filterUnits="userSpaceOnUse">
      <feFlood flood-opacity="0" result="BackgroundImageFix"/>
      <feColorMatrix in="SourceAlpha" values="0 0 0 0 0 0 0 0 0 0 0 0 0 0 0 0 0 0 127 0"/>
      <feOffset dy="2"/>
      <feGaussianBlur stdDeviation="4"/>
      <feColorMatrix values="0 0 0 0 0.054902 0 0 0 0 0.117647 0 0 0 0 0.145098 0 0 0 0.16 0"/>
      <feBlend in2="BackgroundImageFix" result="effect1_dropShadow"/>
      <feBlend in="SourceGraphic" in2="effect1_dropShadow" result="shape"/>
    </filter>
    <filter id="filter5_d" width="64" height="46" x="263" y="161" color-interpolation-filters="sRGB" filterUnits="userSpaceOnUse">
      <feFlood flood-opacity="0" result="BackgroundImageFix"/>
      <feColorMatrix in="SourceAlpha" values="0 0 0 0 0 0 0 0 0 0 0 0 0 0 0 0 0 0 127 0"/>
      <feOffset dy="2"/>
      <feGaussianBlur stdDeviation="4"/>
      <feColorMatrix values="0 0 0 0 0.054902 0 0 0 0 0.117647 0 0 0 0 0.145098 0 0 0 0.16 0"/>
      <feBlend in2="BackgroundImageFix" result="effect1_dropShadow"/>
      <feBlend in="SourceGraphic" in2="effect1_dropShadow" result="shape"/>
    </filter>
  </defs>
</svg>
