<svg fill="none" xmlns="http://www.w3.org/2000/svg" viewBox="0 0 345 181"><g opacity=".16" fill="#A3A9AC"><path d="m158.2 88.2 11.13.1.17-87.2-148.8.6 1.3 99.1 96.02.65-2.22-14.05h28.6v14.23l8.42.06 5.38-13.49Z"/><path d="M160.2 90.1h.05l-.52 1.15.47-1.15Z"/></g><path opacity=".4" fill-rule="evenodd" clip-rule="evenodd" d="M137 1.3a.3.3 0 0 1-.3.3L21 2l1 78.7a.3.3 0 1 1-.6 0l-1-79a.3.3 0 0 1 .3-.3l116-.4c.17 0 .3.13.3.3Z" fill="#A3A9AC"/><g opacity=".4" fill="#A3A9AC"><path fill-rule="evenodd" clip-rule="evenodd" d="M132.8 10.44a.3.3 0 0 0-.3-.34l-10.4.2a.3.3 0 0 0-.3.3v2.6c0 .17.13.3.3.3h10a.3.3 0 0 0 .3-.26l.4-2.8Zm-10.4 2.46v-2l9.75-.2-.31 2.2h-9.44Z"/><path d="M136.7 11.6a.3.3 0 1 0 0 .6h16.4a.3.3 0 1 0 0-.6h-16.4ZM150.57 20.8a.3.3 0 1 0-.14-.6l-11.8 2.92-10.56-2.41a.3.3 0 0 0-.14.58l9.4 2.15-9.6 2.37a.3.3 0 1 0 .14.58l10.76-2.65 11.6 2.65a.3.3 0 1 0 .14-.58l-10.45-2.4 10.65-2.62Z"/><path fill-rule="evenodd" clip-rule="evenodd" d="M126.1 18.9a.3.3 0 0 0-.3.3v8.5c0 .17.13.3.3.3h25.8a.3.3 0 0 0 .3-.3v-8.5a.3.3 0 0 0-.3-.3h-25.8Zm.3 8.5v-7.9h25.2v7.9h-25.2Z"/><path d="M138.4 31.4a.3.3 0 0 0 0-.6l-12.3.3a.3.3 0 0 0 0 .6l12.3-.3ZM146.07 32.27a.3.3 0 1 0-.54.26l3.15 6.41-2.55 5.53a.3.3 0 1 0 .54.26l2.35-5.1 2.51 5.1a.3.3 0 0 0 .54-.26l-2.72-5.54 2.72-5.9a.3.3 0 1 0-.55-.25l-2.51 5.46-2.94-5.97Z"/><path fill-rule="evenodd" clip-rule="evenodd" d="M144.4 30.8a.3.3 0 0 0-.3.3v15.2c0 .17.13.3.3.3h8.7a.3.3 0 0 0 .3-.3V31.1a.3.3 0 0 0-.3-.3h-8.7Zm.3 15.2V31.4h8.1V46h-8.1Z"/><path d="M126.1 33.5a.3.3 0 1 0 0 .6h12.3a.3.3 0 1 0 0-.6h-12.3ZM126.1 35.9a.3.3 0 1 0 0 .6h5.5a.3.3 0 1 0 0-.6h-5.5ZM131.93 43.3a.3.3 0 1 0-.06-.6l-5.8.6a.3.3 0 1 0 .06.6l5.8-.6ZM131.9 45.7a.3.3 0 1 0 0-.6l-5.8.1a.3.3 0 1 0 0 .6l5.8-.1ZM126.12 47.6a.3.3 0 1 0-.04.6l5.8.4a.3.3 0 1 0 .04-.6l-5.8-.4ZM131.9 50.5a.3.3 0 1 0 0-.6l-5.8.1a.3.3 0 1 0 0 .6l5.8-.1ZM131.9 52.9a.3.3 0 1 0 0-.6l-5.8.1a.3.3 0 1 0 0 .6l5.8-.1Z"/><path fill-rule="evenodd" clip-rule="evenodd" d="M160.5 7.4a.3.3 0 0 0-.3-.3l-42.2.7a.3.3 0 0 0-.3.3v72.1c0 .17.13.3.3.3h42.2v-.3h.3V7.4Zm-.6.3v72.2h-41.6V8.4l41.6-.7Z"/><path d="m32.56 9.87 15.96 8.18-15.85 7.78a.3.3 0 1 0 .26.54l16.26-7.98 14.37 7.38a.3.3 0 0 0 .28-.54l-13.98-7.16 14.67-7.2a.3.3 0 1 0-.26-.54l-15.07 7.4-16.36-8.4-.28.54Z"/><path fill-rule="evenodd" clip-rule="evenodd" d="M30.8 7.1a.3.3 0 0 0-.3.3v20.3c0 .17.13.3.3.3h37a.3.3 0 0 0 .3-.3V7.4a.3.3 0 0 0-.3-.3h-37Zm.3 20.3V7.7h36.4v19.7H31.1Z"/><path d="m75.3 10.9 32.4.9a.3.3 0 0 0 0-.6l-32.4-.9v.6ZM75.3 13.9a.3.3 0 1 0 0 .6l32.4.9a.3.3 0 0 0 0-.6l-32.4-.9ZM75.3 17.6a.3.3 0 1 0 0 .6l10.3.2a.3.3 0 1 0 0-.6l-10.3-.2ZM107.6 21.3a.3.3 0 1 0 0-.6l-32.3.5a.3.3 0 0 0 0 .6l32.3-.5ZM75.3 24.8a.3.3 0 1 0 0 .6h17.4a.3.3 0 1 0 0-.6H75.3ZM75.3 28a.3.3 0 0 0 0 .6l17.7.1a.3.3 0 1 0 0-.6L75.3 28ZM93 32.1a.3.3 0 1 0 0-.6l-17.7.2a.3.3 0 0 0 0 .6l17.7-.2ZM75.3 35.3a.3.3 0 1 0 0 .6h17.4a.3.3 0 1 0 0-.6H75.3ZM97.71 44.09a.3.3 0 1 0-.42.42l5.79 5.79-6.2 6.19a.3.3 0 1 0 .43.42l6.19-6.19 5.69 5.7a.3.3 0 1 0 .42-.43l-5.69-5.69 5.7-5.69a.3.3 0 0 0-.43-.42l-5.69 5.69-5.79-5.8Z"/><path fill-rule="evenodd" clip-rule="evenodd" d="M95.3 42.3a.3.3 0 0 0-.3.3v15.6c0 .17.13.3.3.3h12c.42.71.75 1.45 1.01 2.27.52 1.6.74 3.54.69 6.22a.3.3 0 0 0 .6.02 19.8 19.8 0 0 0-.71-6.43c-.24-.75-.54-1.43-.9-2.08h2.91a.3.3 0 0 0 .3-.3V42.6a.3.3 0 0 0-.3-.3H95.3Zm10.8 14.8a.8.8 0 0 0 .23-.03l.6.83H95.6v-15h15v15h-2.96c-.26-.4-.54-.8-.84-1.2a.8.8 0 0 0-.7-1.2.8.8 0 1 0 0 1.6Z"/><path d="M74.81 45.7a.3.3 0 1 0-.02.6l16.7.7a.3.3 0 1 0 .02-.6l-16.7-.7ZM75.3 50a.3.3 0 0 0 0 .6l16.2.2a.3.3 0 1 0 0-.6L75.3 50ZM75.9 54.2a.3.3 0 1 0 0 .6h9.7a.3.3 0 1 0 0-.6h-9.7ZM95.7 69.3a.3.3 0 0 0 0 .6c3.64.07 7.16.04 10.77.02l5.63-.02a.3.3 0 1 0 0-.6H95.7ZM95.4 73.2c4.7-.1 9.5-.1 14.2 0a.3.3 0 0 0 0-.6c-4.7-.1-9.5-.1-14.2 0a.3.3 0 1 0 0 .6ZM100.5 26.87a.3.3 0 1 0-.38.46l3.4 2.8-3.71 3.14a.3.3 0 0 0 .38.46l3.8-3.2 3.42 2.8a.3.3 0 1 0 .38-.46l-3.33-2.74 3.33-2.8a.3.3 0 0 0-.38-.46l-3.42 2.88-3.5-2.88Z"/><path fill-rule="evenodd" clip-rule="evenodd" d="M98.8 25.4a.3.3 0 0 0-.3.3v8.9c0 .17.13.3.3.3h10.3a.3.3 0 0 0 .3-.3v-8.9a.3.3 0 0 0-.3-.3H98.8Zm.3 8.9V26h9.7v8.3h-9.7Z"/><path d="M32.89 41.27a.3.3 0 1 0-.38.46l4.44 3.64-4.84 4a.3.3 0 1 0 .38.46l4.93-4.07 4.49 3.67a.3.3 0 1 0 .38-.46l-4.4-3.6 4.4-3.64a.3.3 0 1 0-.38-.46l-4.49 3.7-4.53-3.7Z"/><path fill-rule="evenodd" clip-rule="evenodd" d="M30.8 39.3a.3.3 0 0 0-.3.3V51c0 .17.13.3.3.3H44a.3.3 0 0 0 .3-.3V39.6a.3.3 0 0 0-.3-.3H30.8Zm.3 11.4V39.9h12.6v10.8H31.1Z"/><path d="M53.4 56.6a.3.3 0 0 0 0-.6l-21.9.5a.3.3 0 1 0 0 .6l21.9-.5ZM31.5 60.1a.3.3 0 0 0 0 .6l21.9.3a.3.3 0 0 0 0-.6l-21.9-.3ZM53.4 65a.3.3 0 1 0 0-.6l-21.9.6a.3.3 0 0 0 0 .6l21.9-.6ZM71.96 76.14a.3.3 0 0 0-.31.52l5.95 3.59-6.46 4a.3.3 0 0 0 .32.5l6.72-4.15 6.07 3.66a.3.3 0 0 0 .3-.52l-5.8-3.5 5.8-3.58a.3.3 0 0 0-.3-.52l-6.07 3.76-6.22-3.76Z"/><path fill-rule="evenodd" clip-rule="evenodd" d="M69.3 74.2a.3.3 0 0 0-.3.3v11.4c0 .17.13.3.3.3h17.5a.3.3 0 0 0 .3-.3v-4.1c.33.09.68.2 1.03.35 1.9.8 4 2.52 4.78 6.31a.3.3 0 0 0 .58-.12c-.82-4-3.07-5.88-5.12-6.74a9.04 9.04 0 0 0-1.27-.42V74.5a.3.3 0 0 0-.3-.3H69.3Zm15.4 6.98-.2.02.02.2a.2.2 0 0 0 .18-.22Zm.54-.28a.8.8 0 1 0 0 .6 8.54 8.54 0 0 1 1.26.16v3.94H69.6V74.8h16.9v6.25a9.61 9.61 0 0 0-1.26-.15Zm.06.24 1.2-.1-1.2.28a.81.81 0 0 0 0-.18Z"/><path d="M91.5 90.2a.3.3 0 0 0 0 .6c3.64.07 7.16.04 10.77.02l5.63-.02a.3.3 0 1 0 0-.6H91.5ZM107.7 93.2a454 454 0 0 0-16.5 0 .3.3 0 0 0 0 .6h16.5a.3.3 0 0 0 0-.6ZM91.5 96a.3.3 0 0 0 0 .6c3.64.07 7.16.04 10.77.02l5.63-.02a.3.3 0 1 0 0-.6H91.5ZM105.4 98.9c-4.7-.1-9.5-.1-14.2 0a.3.3 0 0 0 0 .6h14.2a.3.3 0 0 0 0-.6Z"/></g><path opacity=".6" d="M133.9 180.5s10.5-12.3 21.9 0h-21.9Z" fill="#A3A9AC"/><path d="M209.3 20.1c4.6-6.2 27.5-5.2 25.6 13.5-.9 9.1-5 8 .2 28 5.3 20.3-5.1 26-17.2 21.9-22.1-7.5-21.9-5.4-23.8-33.4-1.4-21.6 4.9-30.9 15.2-30Z" fill="#B27B62"/><path d="M200.71 169.6h5.19v6.2h-5.19v-6.2Zm21.49 0h5.6v6.2h-5.6v-6.2Z" fill="#F6B37E"/><path d="M228.9 172.6h-10.7c-.2-1.04.27-1.93.74-2.84.48-.92.96-1.85.76-2.96-.06-.24-.15-.44-.24-.63-.06-.13-.12-.25-.16-.37-.2-.5-.1-1.1 0-1.6.05-.4.15-.82.25-1.25.1-.42.2-.85.25-1.25l.2-19.7-6-27.2-4.8 17.6c-1.5 5.3-2.2 10.7-2.2 16.1v18.9c.15 1.95.41 2.83.74 3.95l.36 1.25h-7.4v-52h-3.89c.75-11.09 1.89-17.4 1.89-17.4l30.6-2.5.1 1.9c.43 4.78.42 4.9.1 8.32l-.2 2.08c-.4 4.6-.5 9.1-.2 13.6l.3 4.9c.5 7 .5 14 .3 21l-.8 20.1Z" fill="#A3A9AC"/><path fill-rule="evenodd" clip-rule="evenodd" d="M221.82 101.21a.3.3 0 0 1 .37.22 12.78 12.78 0 0 0 5.37 7.52.3.3 0 0 1-.32.5 13.39 13.39 0 0 1-5.63-7.88.3.3 0 0 1 .21-.36Zm-18.84 2.05c.13.1.16.29.06.42l-.46.62c-1.2 1.62-1.98 2.67-3.8 3.95a.3.3 0 1 1-.35-.5c1.74-1.21 2.46-2.19 3.67-3.8l.46-.63a.3.3 0 0 1 .42-.06Zm9.86 6.65a.3.3 0 0 1 .35.23l2.5 11.4a.3.3 0 0 1-.59.13l-2.5-11.4a.3.3 0 0 1 .24-.36Z" fill="#7F878B"/><path d="M200.26 83.1c-2.27 24-1.96 20-1.65 20.2 4.33 1.7 10.01 1.6 14.55 1 2.07-.3 4.13-.8 6.2-1 3.1-.4 7.94-.3 11.04.1 0 0-1.65-11.4-1.65-23.4l-28.5 3.1Z" fill="#4C4C4B"/><path d="M203.1 23.4c3.5-6.2 35.8-.9 18.8 23.7a21.86 21.86 0 0 1-2.88 3.4l1.08 8.5h-9.2l.58-5.01c-9.52.18-16.98-15.07-8.38-30.59Z" fill="#F6B37E"/><path d="M192.3 82.2c-.9-6.7 2.5-14.4 5.3-19.4 1.8-3.2 5.1-5.3 8.7-5.7 10.3-.9 25-1.5 26-.4 5.2 5.9-3 25.4-7.7 30.3l-32.3-4.8Z" fill="#4C4C4B"/><path d="m200 87.1-4.5-1.3c-1.7-.5-3-1.9-3.3-3.6l1.4-1.6c1.2-1.3 2.9-2.1 4.6-1.9 6.9.6 13.9-1.2 20.8-.2v7.4l-19 1.2Z" fill="#F6B37E"/><path d="m218.7 79.6 5.9 7.5s-13.9 6.1-24.6 0c0 0 8.5-2.1 14.2-5.4 1-.6 2.1-1.1 3.2-1.6l1.3-.5Z" fill="#F6B37E"/><path fill-rule="evenodd" clip-rule="evenodd" d="M217.67 80.08a.3.3 0 0 1-.15.4c-1.1.5-2.18.99-3.17 1.58a58.07 58.07 0 0 1-9.96 4.13.3.3 0 0 1-.18-.58c2.89-.9 6.76-2.38 9.84-4.07 1.01-.6 2.13-1.11 3.22-1.6v-.01a.3.3 0 0 1 .4.15Z" fill="#D1916D"/><path fill-rule="evenodd" clip-rule="evenodd" d="M202.76 69.35a.3.3 0 0 1 .1.41c-.78 1.2-1.42 3.45-1.87 5.44a56.47 56.47 0 0 0-.65 3.36l-.03.21-.01.06v.01l-.17-.02.17.02a.3.3 0 0 1-.6-.08l.3.04-.3-.04v-.02l.02-.06.03-.22a52.41 52.41 0 0 1 .66-3.39c.45-1.98 1.1-4.33 1.94-5.63a.3.3 0 0 1 .41-.1Zm20.33.66a.3.3 0 0 1 .2.38 52.24 52.24 0 0 1-4.23 9.18l4.78 6.04a.3.3 0 1 1-.47.38l-4.9-6.2a.3.3 0 0 1-.03-.34c1.6-2.8 3.28-6.17 4.28-9.24a.3.3 0 0 1 .37-.2Z" fill="#2D2D2D"/><path d="M68.5 54.9a11.08 11.08 0 0 1-7.2 5.08l1.2 8.42h-9.1l.9-8.72c-6.27-1.88-11.92-8.11-11.6-18.88.5-16.6 22.3-20.2 27.5-7.2.6 1.5.7 3 .6 4.6 0 1.6.3 3.1.9 4.6l.2.47c.26.58.54 1.2.7 1.83.2.8 0 1.7-.7 2.2-.2.12-.4.2-.6.29-.33.13-.65.26-.9.51-.4.4-.5.9-.6 1.5l-.2 1.24c-.2 1.38-.42 2.92-1.1 4.06ZM107.3 35.4c-.3-.2-.5-.5-.4-.9l1-3.3c.2-.5-.2-1.1-.7-1.2h-.1c-.5-.1-.9.1-1.1.5l-1.9 4.1c-.15.3-.42.55-.67.78a9.3 9.3 0 0 0-.23.22c-.78.78-.7 1.62-.6 2.5.08.71.15 1.45-.2 2.2-3.7 7.6-8.5 13-14.3 16.7 1.4 1.2 2.7 2.4 4 3.7 1.2 1.3 2.4 2.5 3.7 3.7 6.62-6.35 9.88-13.34 12.57-19.11l.93-1.99c.8-1.6 1.6-4.1.1-5.2-.6-.4-.88-.98-1.13-1.5-.25-.53-.47-1-.97-1.2ZM39.9 95.6c-.9 6.9-1.6 15.1-1.2 25.7.06.4.3.69.54.98.19.23.37.46.46.72.1.2.2.5.2.7-.1.5-.3.6-.6.6s-.6.3-.6.7c.2 9.5-6.6 6-6.4 1.8l.01-1.1c.02-1.36.04-3.02-.11-4.1-.32-2.24-.7-4.42-1.09-6.58-1.05-5.92-2.08-11.73-1.71-18.62l10.5-.8Z" fill="#F6B37E"/><path d="m229.7 30.2-13.4-11.7-14.6 4.1-3.9 11.7c1.8.3 8.8-4.1 12.2-6.7.9 1.6 2.7 2.6 4.4 3.2 1.3.4 2.8.5 3.7 1.5.9 1 .9 2.5.9 3.8-.1 5.7 2.7 10.7 3.1 12.2.4 1.8.3 1.5 2.5 2.7l5.1-20.8Z" fill="#B27B62"/><path opacity=".6" d="M127.1 138.6h24.3c2.3 0 4.2-1.9 4.2-4.2V133h-11.2v-23.19l-7.4-.11c-1.1-.1-2-1-2-2.1v-.6h9.4V87.4h-28.6L123 133h-.1v1.4c0 2.3 1.9 4.2 4.2 4.2Z" fill="#A3A9AC"/><path d="M44.1 108.1c-1.2 12.8 3.8 31.5 3.1 44.3-.8 14.2-1 21.3-.8 24.7h8.8c.5-22.1 5.7-39.5 6.4-53.2 0-.3.4-.3.5 0 1.5 15.6 5.4 37.1 3 52.5 1.8.3 6.7.4 8.5.2.6-.1 6.2-48 1.3-70.4l-30.8 1.9Z" fill="#4C4C4B"/><path d="M39.9 96.4c1.6-11.7 4.2-17 4.2-17l-1.6 38.3 22.3.3c.4 0 .7-.2.8-.6l.6-1.7c.2-.7 1.2-.8 1.6-.1l.9 1.9c.2.3.5.5.9.5l7.9-1.3L70.9 78c12.5-3.6 20.5-8.8 26-14.4l-7.2-7.3c-7.1 4.9-15.8 7.1-26.3 7.5-3.7.1-8.1-.5-11.8-.7-3.7-.2-7.6 0-10.7 2.1-2 1.4-3.5 3.4-4.7 5.5-1.8 3-3.2 6.2-4.2 9.6-1.4 5-2.4 10.3-2.5 15.6l10.4.5Z" fill="#FAFBFB"/><path d="m28.7 93.1-.1 4.6 11.9 1.4.7-5.2-12.5-.8Zm66.7-26.7 3.5-3.2-8-8.9-4.1 3 8.6 9.1Z" fill="#fff"/><path opacity=".6" fill-rule="evenodd" clip-rule="evenodd" d="M86.6 57.08a.3.3 0 0 1 .42.01l7.8 8.1a.3.3 0 0 1-.44.42l-7.8-8.1a.3.3 0 0 1 .01-.43Zm-34.35 5.86a.3.3 0 0 1 .41.11l.19.34a66.55 66.55 0 0 0 1.98 3.41c.24.37.43.6.58.73.14.13.22.15.27.15.05 0 .14-.04.3-.16.13-.1.28-.23.45-.4l.14-.12c.49-.44 1.16-1.02 2.19-1.56.34-.19.63-.3.93-.34.31-.04.6.02.9.15.31.12.66.31 1.09.56l.21.12 1.19.66c.39-.8.62-1.74.62-2.59a.3.3 0 1 1 .6 0 6.7 6.7 0 0 1-.84 3.15.3.3 0 0 1-.4.11c-.6-.31-1.07-.59-1.47-.81a231.34 231.34 0 0 0-.37-.22l4.06 32.35c.7 4.8 1.3 9.08 1.62 12.9a.3.3 0 0 1-.6.06L64.7 98.67l-.44-2.97-.5-3.33c-1.1-7.48-2.3-16.14-3.15-26.24a.3.3 0 0 1 .05-.2l-.27-.13c-.25-.1-.44-.13-.62-.1-.19.02-.4.1-.72.26-.97.51-1.6 1.06-2.06 1.48l-.13.12-.5.44c-.19.14-.4.26-.65.27-.26.02-.49-.1-.7-.3-.2-.18-.42-.46-.67-.84a66.4 66.4 0 0 1-2.2-3.78.3.3 0 0 1 .12-.41Zm17.1 8.47a.3.3 0 0 1 .34.23c.7 3.3 1.3 6.61 1.8 10.02a.3.3 0 0 1-.59.1l-1.8-10a.3.3 0 0 1 .24-.35Zm-11.17.9c.15-.02.29.09.32.24l.1.6a.3.3 0 0 1-.57.18 1.52 1.52 0 0 1-.13-.71v-.02a.3.3 0 0 1 .28-.3Zm1.16 6.8a.3.3 0 0 1 .34.18l.2.5a.3.3 0 0 1-.5.32.94.94 0 0 1-.24-.37c-.04-.12-.04-.24-.04-.32v-.02c0-.14.1-.27.24-.3Zm1.07 6.7a.3.3 0 0 1 .36.16c.13.26.13.52.13.71v.02a.3.3 0 0 1-.6.05l-.1-.6a.3.3 0 0 1 .2-.34Zm.87 6.6c.15-.02.29.09.32.24l.1.6a.3.3 0 0 1-.57.18 1.52 1.52 0 0 1-.13-.71v-.02a.3.3 0 0 1 .28-.3Zm-32.88.67a.3.3 0 0 1 .32-.28l11.3.8a.3.3 0 0 1-.04.6l-11.3-.8a.3.3 0 0 1-.28-.32Zm33.8 6.22c.17 0 .3.13.3.3v.3a.3.3 0 1 1-.6 0v-.3c0-.17.13-.3.3-.3Zm.3 7.8c.17 0 .3.13.3.3v.5a.3.3 0 1 1-.6 0v-.5c0-.17.13-.3.3-.3Z" fill="#A3A9AC"/><path d="m196.1 175.87.1 4.53h-5.7c-.46-1.69 2.02-2.84 4.32-3.92l1.28-.61ZM207.9 180.4h-7.2v-5.73c.36.05.7.1 1.07.18 1.34.24 2.83.5 5.23-.15l.17.63c.45 1.7.9 3.38.73 5.07ZM212.3 180.4c-.46-1.69 2.02-2.84 4.32-3.92.7-.33 1.4-.65 1.98-.98 2.17-1.16 3.47-.93 4.97-.66 1.34.25 2.83.52 5.23-.14l.17.63c.45 1.7.9 3.38.73 5.07h-17.4ZM61.8 177.7c.7.6 1.3 1.9 1.3 2.9H46.4c-.1-1.4-.1-2.9-.1-4.3h1.9l.8.02c.53.03 1.07.05 1.6-.02.77-.07 1.54-.2 2.3-.34 1.5-.26 2.97-.53 4.5-.26.43.07.92.25 1.38.42l.52.18c.9.4 1.8.8 2.5 1.4ZM80.6 178.1c.7.6 1.2 1.5 1.2 2.5H65.1c-.1-1.4-.1-2.9-.1-4.3h1.9l.8.02c.53.03 1.07.05 1.6-.02l1.38-.14c1.84-.19 3.68-.38 5.52-.06.43.07.92.25 1.38.41l.52.19c.9.4 1.8.8 2.5 1.4Z" fill="#FF6B60"/><path fill-rule="evenodd" clip-rule="evenodd" d="M51.56 118.2c.16.04.27.2.23.36a6.3 6.3 0 0 1-2.38 3.55c-1.1.88-2.4 1.47-3.42 1.78a.3.3 0 0 1-.18-.58c.97-.29 2.19-.85 3.23-1.67a5.7 5.7 0 0 0 2.17-3.2.3.3 0 0 1 .35-.23Z" fill="#2D2D2D"/><path d="M128.45 49.3c.58-4.98 1.38-11.94 10.85-12.7 4.17-.33 6.13.5 7.8 1.19.88.37 1.69.7 2.7.81 1.04.1 2.23-.29 3.58-.73 2.4-.8 5.29-1.74 8.62-.27 2.5 1.1 2.84 2.61 3.37 4.98.38 1.7.86 3.85 2.33 6.62.34.66.72 1.31 1.09 1.95 1.03 1.8 2.04 3.56 2.41 5.55.5 3.27-.86 6.31-2.24 9.39-1.07 2.38-2.14 4.78-2.36 7.31-.03.44 0 1.05.03 1.78.14 3.24.39 8.86-3.88 13.06l-4.55-.04-1.45 3.64c-4.8 1.73-11.9 2.45-22.35 1.26-27.26-3.04-16.5-16.39-13.54-20.04.35-.44.59-.73.64-.86.81-1.88.75-3.96.69-6.04-.07-2.02-.13-4.04.61-5.86a15.12 15.12 0 0 1 2.48-3.63c.92-1.1 1.83-2.2 2.42-3.47.41-.92.57-2.3.75-3.9ZM160.14 90.25l.24-.15h-.18l-.06.15Z" fill="#4C4C4B"/><path d="M136.2 57.9c-1.7 15.4 14.8 26.5 21.4 8.5.6-1.8 1.2-3.8 1.6-6.1.4-2.3.4-4.4 0-6-1.4-6.2-7.5-8.3-13.2-8.5-4.9-.2-8.3-1.1-9.8 12.1Z" fill="#D1916D"/><path d="M133.3 61.8c3.4.2 6.9-.9 9.6-3 5.6-4.2 7.8-12.2 14-15.4-24.4-3-27.5 12.2-23.6 18.4Z" fill="#4C4C4B"/><path d="M151.8 80.9h-8.1v-10h5.8l2.3 10Zm28.2 51.3c-.3 14-2.4 29.5-4.3 43.4-2.8.4-4.4.3-7.2 0 1-11.4-.4-28.2-1.3-39.7-.1-1.6-.7-3.2-1.6-4.4l14.4.7Z" fill="#D1916D"/><path d="M166.3 132.2c-.3 14-2.4 29.5-4.3 43.4-2.8.4-4.4.3-7.2 0 1-11.4-.4-28.2-1.3-39.7-.1-1.6-.7-3.2-1.6-4.4" fill="#D1916D"/><path d="M151.4 78.8c-3.6-.1-7.7-.6-7.7-.6l-5.3 1.2a8.88 8.88 0 0 0-5.91 4.1l.01-.1L125 97c-2.3 4.3-1 9.6 3.2 12.2l.76.48-.66 7.32c-1 7.9.8 16.6 8.8 21.5 1.21.74 4.81.71 17.24.61 6.07-.05 14.24-.11 25.26-.11.9 0 1.6-.6 1.6-1.5v-2.9c0-6-3.4-11.5-15.5-14.4l-5.9-3.2c-1-2.2-1.44-4.53-1.53-6.92l-7.17-.08.1-.2c-.23.07-.47.1-.7.1l-13.5-.2c-1.1-.1-2-1-2-2.1v-.6h15.7l7.5-18.8 4.54.04c-.41-6.89-11.34-9.44-11.34-9.44Z" fill="#00C7B7"/><path d="m160.25 90.1-.52 1.15.47-1.15h.05Z" fill="#00C7B7"/><path d="M169.6 180.4c.5-2-3.4-3.2-5.7-4.4-3.7-2-4.6.5-9.2-.8-.5 1.7-1 3.4-.8 5.1h15.7v.1Z" fill="#4C4C4B"/><path d="M183.3 180.4c.5-2-3.4-3.2-5.7-4.4-3.7-2-4.6.5-9.2-.8-.5 1.7-1 3.4-.8 5.1h15.7v.1Z" fill="#4C4C4B"/><g opacity=".35" fill="#A3A9AC"><path d="M99.6 180.7h5.7v-61.3l-4.5 1.2-1.2 60.1ZM196.2 180.7h4.5v-60.1H195l1.2 60.1Z"/></g><path d="m209.2 120.6-11.6 1.4c-30.8 3.7-66.4 3.7-97.2 0l-11.6-1.4-1.2-11.4 121.5 1.4v10h.1Z" fill="#FAFBFB"/><path opacity=".4" fill-rule="evenodd" clip-rule="evenodd" d="M87.48 109a.3.3 0 0 1 .22-.1l29.4.3a.3.3 0 0 1 0 .6l-29.06-.3 1.26 11.07a.3.3 0 1 1-.6.06l-1.3-11.4a.3.3 0 0 1 .08-.23Z" fill="#A3A9AC"/><path d="M137.2 107.1c-.4 0-.7-.5-.4-.9 1.2-1.4 3.8-3.9 6.8-1.3.7.6 1.1.2 1.6.4.2.1.4.2.5.4.1.2 0 .5.1.7 0 .1.1.2.1.3 0 .2-.1.4-.2.5l-8.5-.1Z" fill="#D1916D"/><g opacity=".25" fill="#A3A9AC"><path d="m193 88.5-34.8-.3-7.5 18.8H135v.6c0 1.1.9 2 2 2.1l13.5.2c.9 0 1.8-.5 2.1-1.4l7.6-18.4h34l-1.2-1.6ZM281.1 175.7h-3.3l-.67-21.3h4.5l-.53 21.3ZM281.7 151.54l-4.68-.55-.08-2.43 4.83-.06-.08 3.04ZM146.8 175.7h-4.1v-28.5h5.34l-1.24 28.5ZM148.23 142.83l-5.53-.38v-5.75h5.8l-.27 6.13Z"/></g><path opacity=".7" d="M160.25 90.1h33.95l-.07-.1h.17l-6.8 18.6a2.7 2.7 0 0 1-2.6 1.8l-33.8-.4.1-.2a2.05 2.05 0 0 0 1.4-1.3l7.13-17.25.52-1.15Z" fill="#A3A9AC"/><path opacity=".8" d="M178.54 101.78c.8-2.65-.48-5.37-2.86-6.1-2.38-.71-4.95.85-5.75 3.5-.8 2.63.48 5.36 2.86 6.08 2.38.72 4.95-.84 5.75-3.48Z" fill="#E9EAEB"/><path opacity=".6" d="M254.6 144.7c.3 2.4 2.3 4.2 4.7 4.1l37.3-.5c5.9-.4 10.2-5.6 9.6-11.4-.3-3.7-.3-7.9.9-12 2.8-10.1 9.2-13.9 11.2-29.2.3-2.5-1.4-4.9-3.9-5.2l-3.6-.5-18.2 47.1-38.3 4.8.3 2.8Z" fill="#A3A9AC"/><path d="m302.4 79.3-1.2 8.8 8.4-.5-1.7-9.5-5.5 1.2Z" fill="#B27B62"/><path d="m285.9 141.1-12.2 2.8c-6.9 1.6-14.1 1.7-21.1.3l-13.9-2.7-2.4 11.2c-.7 3.3-1 6.8-.9 10.2l-1 10.5h-9.5l-2-31.8c-.5-6.9 4.3-13.1 11.1-14.6l19-4-6.4-11.5s-4.3 8.2-4.9 11.2l-7-1.7s-.3-7.8 2.3-19.9c0 0 7.6-12.1 17 0s17.7 16.5 17.7 16.5l14.2 23.5Z" fill="#799CFB"/><path opacity=".6" d="m265.7 115.8-9.9-22.5c-.3-.6 0-1.3.6-1.5l14.7-5.3c.6-.2 1.2.1 1.4.7l7.3 21.3c.2.5 0 1.1-.5 1.3l-12.2 6.5c-.4.4-1.1.1-1.4-.5Z" fill="#A3A9AC"/><path d="M288.1 83.4c.2-.2.6-.3.9-.1.3.2.4.5.3.8l-.3.6c-.4.8-.2 1.7-.5 2.5-.4 1.1-1.6 1.7-2.3 2.5-.4.5-.8 1.2-1.1 1.7l-5.9-1.1c.4-2 .4-4.1.3-6.2 0-.5 0-1 .1-1.5.3-1.1 1.3-1.7 2.3-2.3.5-.3 1-.7 1.6-1 .5-.3 1-.6 1.6-.7.8-.1 1.7.3 2.3.9.6.6 1 1.4 1.4 2.1.1.3.3.6.3.9 0 .7-.5 1.3-1.1 1.7-.9.7-1.8 1.2-2.8 1.7-.6.3-1.2.5-1.8.4-1-.2-1.6-1.1-2.2-2" fill="#B27B62"/><path opacity=".6" d="m265.7 115.8-9.9-22.5c-.3-.6 0-1.3.6-1.5l14.7-5.3c.6-.2 1.2.1 1.4.7l7.3 21.3c.2.5 0 1.1-.5 1.3l-12.2 6.5c-.4.4-1.1.1-1.4-.5Z" fill="#E9EAEB"/><path d="m258.2 94.6 13.5-5.1 5.6 17.6-11.1 4.7-8-17.2Z" fill="#fff"/><path d="M278.82 110.06c.18.42.37.83.58 1.24l6.9-7.8c-2.1-6.5-1.3-12-1.3-12l-5.9-1.1s-1.75 4.89-1.82 10.74l2.52 7.36c.2.5 0 1.1-.5 1.3l-.48.26Z" fill="#E9EAEB"/><path d="M311.6 86.4h-12.4c-4.2 5.2-8.9 10.1-13.4 14.9-5.4 5.7-10.8 11.4-17.4 15.7-.4.3-.9.6-.9 1.1 0 .4.2.7.5 1 1.7 2.1 3.7 3.9 5.3 6.1 2.3 3.1 3.9 6.7 6.2 9.8 3 3.9 7.1 7 11.7 8.6 6.1-13.3 14.3-24.3 19.4-38 2.9-7.8 1.1-13.4 1-19.2Z" fill="#fff"/><path d="M294.3 60.2c-1.2 2.6-3.9 4.4-5.3 6.5-1.3 2.3 3 3.2 2.9 5.3-.1 2.8-2.3 6.1 3 8.5 8.7 4.1 22.8-.8 22.6-16.4-.1-12.9-9.9-17.1-17.6-13.1-3.3 1.8-4.1 6-5.6 9.2Z" fill="#B27B62"/><path d="M299.2 95.6s-3.5 6-5.6 19.4c0 0-14.3 1.2-22.7-4.7 0 0-3.5 1.5-2.9 6.1 0 0 16 13.6 31.4 11.4 1.5-.2 2.8-1.2 3.4-2.6 2.5-5.5 9-20.2 9.2-26" fill="#fff"/><path opacity=".6" fill-rule="evenodd" clip-rule="evenodd" d="M297.1 100.72a.3.3 0 0 1 .18.38 75.54 75.54 0 0 0-3.28 14.04.3.3 0 0 1-.27.26l-.03-.3.03.3h-.12a31.23 31.23 0 0 1-1.56.08c-1.06.02-2.54.03-4.3-.07a41.69 41.69 0 0 1-12.16-2.33.3.3 0 1 1 .21-.56 41.1 41.1 0 0 0 12 2.3 54.44 54.44 0 0 0 5.45 0h.19c.9-6.2 2.19-10.74 3.28-13.92a.3.3 0 0 1 .38-.18Zm-21.67 20.74a.3.3 0 0 1 .4-.13c5.8 3 8.28 4.09 14.15 5.78a.3.3 0 0 1-.16.58c-5.93-1.7-8.44-2.82-14.26-5.82a.3.3 0 0 1-.13-.4Z" fill="#A3A9AC"/><path d="M215.5 180.5c-1.4-3.6 6.8-3.9 9.5-7.2h9.5c1.1 3.2 2.8 6.3 1.5 7.2" fill="#4C4C4B"/><path d="m223.9 154.2 1.2 19h9.5s1.1-15.8 1.5-18.4l-12.2-.6Z" fill="#B27B62"/><path d="m236.8 158.3-13.8-.7-.6-5.2 14.4.7v5.2Z" fill="#799CFB"/><path d="M224.8 121.4c1.5-.3 3.1 0 4.6-.1 2.8-.2 5.5-1.9 8.3-2.1 4.8-.3 9.5 10.7.9 11.2-16.2.9-20.2-7.7-13.8-9Z" fill="#4C4C4B"/><path fill-rule="evenodd" clip-rule="evenodd" d="M229.94 123.4c-2.08-.4-4.33-.6-6.36-.01a.3.3 0 0 1-.16-.58c2.17-.62 4.52-.4 6.64 0 .77.14 1.53.3 2.28.46 1.4.3 2.76.6 4.19.73 1.87.2 3.75.1 5.65 0 .17 0 .31.12.32.28a.3.3 0 0 1-.28.32h-.02c-1.89.1-3.8.2-5.73 0-1.46-.13-2.89-.44-4.31-.75a67.2 67.2 0 0 0-2.21-.45Z" fill="#2D2D2D"/><path d="M242 121.8c.5-2.4 3.2-7.7 4.3-9.8l-10-7c-1.7 9.7-1.4 14.9-1.4 14.9 2.5-.8 5.2-.1 7 1.8l.1.1Z" fill="#B27B62"/><path d="m246 112.5-11.8-4.1.9-5.2 13.5 4.7-2.6 4.6Z" fill="#799CFB"/><path d="M235.2 102.92a.3.3 0 1 0-.2.56l3.3 1.2a.3.3 0 0 0 .2-.56l-3.3-1.2ZM248.27 108.22a.3.3 0 1 0-.55-.25l-2 4.4a.3.3 0 0 0 .16.4.3.3 0 0 0 .4-.15l2-4.4ZM260.54 122.2a.3.3 0 1 0-.08-.6c-5.1.6-10.22 1.5-15.32 2.6a.3.3 0 1 0 .12.6c5.1-1.1 10.19-2 15.28-2.6ZM274.32 128.3a.3.3 0 0 0-.01-.42.3.3 0 0 0-.43.02c-1.65 1.75-1.69 3.88-1.03 5.83a13.7 13.7 0 0 0 3.24 4.98c.12.12.3.12.42 0a.3.3 0 0 0 0-.42 13.1 13.1 0 0 1-3.09-4.75c-.61-1.82-.55-3.7.9-5.23ZM222.1 152.38c0-.16.15-.29.31-.28l11.8.6c.17 0 .3.15.29.31a.3.3 0 0 1-.31.29l-11.8-.6a.3.3 0 0 1-.29-.31Z" fill="#587EF8"/><path d="m286.5 87.7-.3-.14-.33.7-.14-.07-.53.62c-.1.1-.3.1-.5.1-.2-.1-.3-.3-.2-.4l.18-.8-.17-.09.33-.7-.24-.12 5.4-11.5c.2-.5.9-.7 1.4-.5.5.2.7.9.5 1.4l-5.4 11.5Z" fill="#E9EAEB"/><path opacity=".6" d="m284.85 86.9 1.36.64-.34.72-1.36-.64.34-.72Z" fill="#A3A9AC"/><path d="M283.2 86.4c.6.1 1.2-.1 1.8-.4 1-.5 1.9-1 2.8-1.7.6-.4 1.1-1 1.1-1.7 0-.3-.2-.6-.3-.9l-.9-1.6-4.5 6.3Z" fill="#B27B62"/><path d="M210.36 27.45a.3.3 0 0 0-.52.3c.95 1.7 2.84 2.73 4.56 3.33h.01c.34.11.68.2 1.02.27l.98.26c.63.2 1.17.45 1.57.9.4.43.6 1 .71 1.63.1.63.11 1.3.11 1.96-.05 2.9.6 6.08 1.53 8.76.46 1.34.99 2.57 1.53 3.57s1.1 1.8 1.64 2.3a.3.3 0 0 0 .4-.45 8.19 8.19 0 0 1-1.51-2.13 23.62 23.62 0 0 1-1.5-3.48 26.2 26.2 0 0 1-1.49-8.56v-.02c0-.64 0-1.36-.12-2.05a3.76 3.76 0 0 0-.86-1.94 3.92 3.92 0 0 0-1.83-1.06l-1.02-.27-.98-.25c-1.67-.6-3.38-1.57-4.23-3.07ZM288.08 84.54a.3.3 0 1 0-.36-.48c-.88.69-1.76 1.18-2.75 1.67-.59.3-1.11.46-1.62.37a2.08 2.08 0 0 1-1.08-.65 8.69 8.69 0 0 1-.92-1.22.3.3 0 0 0-.5.34c.3.45.61.92.98 1.3.38.4.83.7 1.41.82h.01c.7.12 1.37-.11 1.98-.42 1.01-.5 1.93-1.02 2.85-1.73Z" fill="#9B6049"/><path d="M270.2 111c-1.7-.8-3.7-2.2-4.9-3.6-.1-.1-.3-.3-.5-.4-.4-.1-.7.2-.8.6-.1.3-.2.7-.4 1-.4.5-1.4.5-1.7 1-.2.3-.2.7-.1 1 .1 1 .4 2 .9 2.9.3.8.8 2.2 1.5 2.5 1 .5 3-.1 4 .4" fill="#B27B62"/><path opacity=".4" fill-rule="evenodd" clip-rule="evenodd" d="M271.04 95.8c-.77-.18-1.57.24-2.27.74l-.43.33-.08.07c-.18.14-.37.28-.57.41a3.06 3.06 0 0 1-1.39.55h-1.08c-.8.1-1.64.64-2.44 1.24a.3.3 0 0 1-.36-.48c.8-.6 1.75-1.25 2.75-1.36a.3.3 0 0 1 .03 0h1.08a2.5 2.5 0 0 0 1.08-.45c.18-.12.35-.25.53-.39l.08-.06c.15-.12.3-.24.46-.34.7-.5 1.7-1.08 2.74-.85a.3.3 0 1 1-.13.58Zm1.86 3.66a.3.3 0 0 1-.26.34 2.6 2.6 0 0 0-1.56.73.54.54 0 0 1-.13.22.5.5 0 0 1-.35.15c-.1 0-.3 0-.47-.15a2.42 2.42 0 0 1-.3-.2l-.01-.01a2.13 2.13 0 0 1-1.04.65h-.02c-.53.11-.95.11-1.45.11-1.1.1-2.1.74-2.65 1.74a.3.3 0 1 1-.52-.28 3.95 3.95 0 0 1 3.13-2.06h.03c.5 0 .87 0 1.33-.1.17-.03.35-.12.5-.23.16-.12.25-.24.28-.34a.3.3 0 0 1 .42-.2c.13.06.25.15.34.22l.01.01c.1.08.18.14.25.17.03.02.06.03.08.06a.29.29 0 0 1 .06-.08c.46-.58 1.25-.9 1.99-1a.3.3 0 0 1 .34.25Zm.33 2.85a.3.3 0 0 1-.04.42c-.37.3-.84.42-1.28.47l-.65.05h-.01c-.22.01-.42.02-.6.05-.54.09-1.01.35-1.5.7l-.67.53-.06.04a14.95 14.95 0 0 1-.79.6l-.53.29-.57.3a.3.3 0 0 1-.26-.53l.53-.29.55-.3c.23-.16.46-.35.7-.54l.05-.04c.23-.18.46-.37.7-.54.51-.37 1.08-.7 1.75-.82h.01l.65-.05c.22-.01.43-.02.63-.05.41-.05.74-.14.97-.33a.3.3 0 0 1 .42.04Z" fill="#A3A9AC"/><path opacity=".8" fill-rule="evenodd" clip-rule="evenodd" d="M267.18 89.8a.3.3 0 0 1-.18.38l-4.1 1.5a.3.3 0 0 1-.2-.56l4.1-1.5a.3.3 0 0 1 .38.18Z" fill="#A3A9AC"/><g opacity=".6" fill="#A3A9AC"><path d="M268.5 180.5s10.5-12.3 21.9 0h-21.9ZM298.2 88.6s1.9-.9 3.4 1.3a6.88 6.88 0 0 1-1.99 2.28 108.2 108.2 0 0 1-10.31 16.62l-3.2 1-.3-2.1c5.7-4.57 10.87-13.77 12.18-16.2-.1-.62-.05-1.55.22-2.9Z"/></g><path d="M312.2 73.4c-.9-.6-.6-2.1.4-2.3.3-.1.6-.2.8-.3.9-.5 1.5-1.7 1.3-2.7-.1-.7-.6-1.3-1.2-1.7-.6-.3-1.3-.1-1.9-.3-5.3 1.2-2.6-9.1-5.5-11.6-3.5-3-5.4 2.8-14 .5-10-2.6-3.9-14.2 2.4-10.5 2.2-.4 1.7-2.7 3.7-3.5a7.6 7.6 0 0 1 7.9 1.3c.6.5 1.1 1.1 1.8 1.5 1.3.7 3 .5 4.5.7 2.9.4 5.4 2.7 6.2 5.5.2.9.9 1.6 1.7 1.9 1.6.7 3 2.2 3.5 3.8.6 2.2 0 4.6-.3 6.6-.3 2.3-.9 4.5-2 6.5-.9 1.6-2.1 3.3-3.7 4.3-1.3.8-2.9 1.2-4.4.9-.4-.1-.8-.3-1.2-.6Z" fill="#6B596A"/><path fill-rule="evenodd" clip-rule="evenodd" d="M304.6 53.41c.56.11 1.11.38 1.69.86.82.7 1.2 1.91 1.44 3.21.16.85.26 1.78.35 2.7.06.5.1 1 .17 1.47.17 1.37.42 2.56.92 3.33.24.38.53.65.9.79s.84.18 1.46.04a.3.3 0 1 1 .14.58c-.7.16-1.3.14-1.82-.06a2.5 2.5 0 0 1-1.19-1.02c-.58-.9-.83-2.22-1-3.58-.07-.5-.13-1.02-.18-1.52-.1-.9-.19-1.8-.34-2.62-.23-1.3-.6-2.3-1.23-2.86a3.23 3.23 0 0 0-1.42-.73 3.02 3.02 0 0 0-1.37.08c-.49.12-1 .33-1.6.57-.6.24-1.27.5-2.03.74a.3.3 0 1 1-.18-.58c.74-.22 1.38-.48 1.98-.71l.02-.01c.59-.24 1.14-.46 1.67-.6.54-.13 1.07-.19 1.63-.08Z" fill="#493B47"/><path d="M52.9 43.1c-.3-.6-.6-1.3-.6-1.9-.1-1.4.8-2.7 2-3.4 1.5-.9 3.3-.9 5-.8 1.5.1 2.9.4 4.4 0 4-1 9.9-2.9 12.7-6.9 0 0-2.3-.2-4.6-1.1 1.5-1.8 2.2-4.2 1.9-6.5-1.6.2-3.2.2-4.7-.1.2-1-.1-3-.5-3.9-3.6 2.9-6.9 6.3-11.5 6.7-2.9.3-6.5-.2-9.4.5-3.7.9-6.7 4.1-7.9 7.7-1.2 3.6-.9 7.7.3 11.3 1.2 3.6 3.3 6.9 5.3 10.2 2 3.3 5.9 1.8 6.9-.6.2-.5 0-1.1-.5-1.4-1.2-.7-2.3-2.9-2.1-4.1.2-1.4.7-3.1 3-2.6-.1 0 2.6.9.3-3.1Z" fill="#FF6B60"/><path d="M72.25 34.16a.3.3 0 1 0-.3-.52c-3.57 2.08-6.36 2.87-8.42 3.12-1.65.21-2.84.08-3.65 0l-.56-.06c-1.7-.1-3.59-.1-5.17.84-1.27.74-2.25 2.13-2.15 3.67 0 .68.34 1.43.63 2.02a.3.3 0 0 0 .54-.26 4.4 4.4 0 0 1-.57-1.8c-.09-1.25.72-2.45 1.85-3.11 1.42-.85 3.13-.86 4.83-.76.14 0 .31.03.5.05.82.09 2.1.23 3.82.01 2.16-.27 5.02-1.08 8.65-3.2ZM56.8 174.85a.3.3 0 0 0-.58-.14 6.58 6.58 0 0 0-.32 1.99.3.3 0 0 0 .6.05l.3-1.9ZM75 175.4a.3.3 0 0 0-.6-.03l-.2 1.7a.3.3 0 0 0 .58.13 5.2 5.2 0 0 0 .22-1.78v-.02ZM76.8 175.4a.3.3 0 1 0-.6 0v2a.3.3 0 1 0 .6 0v-2ZM58.7 175.5a.3.3 0 0 0-.6-.02l-.05.75c-.02.24-.05.5-.05.77a.3.3 0 0 0 .6.02l.05-.75c.02-.24.05-.5.05-.77Z" fill="#B7303D"/><path opacity=".4" fill-rule="evenodd" clip-rule="evenodd" d="M0 180.5c0-.16.13-.3.3-.3h343.4a.3.3 0 0 1 0 .6H.3a.3.3 0 0 1-.3-.3Z" fill="#A3A9AC"/><path opacity=".4" d="m149.3 142.9-7.4-.5v4.8h6.9l.5-4.3Zm132.9 8.7-5.9-.7.3 3.5h5.6v-2.8Z" fill="#A3A9AC"/><path opacity=".4" d="m149.3 142.9-7.4-.5v4.8h6.9l.5-4.3Zm132.9 8.7-5.9-.7.3 3.5h5.6v-2.8Z" fill="#A3A9AC"/><path d="M142.25 79.16a.3.3 0 1 0-.5-.32c-.28.45-.38.9-.32 1.3s.29.72.62.92c.46.26.94.18 1.33.08l.29-.08.27-.08c.17-.05.32-.08.46-.08.18 0 .37.07.62.2l.22.11c.17.1.36.2.54.26a3.5 3.5 0 0 0 2.01.39 3.5 3.5 0 0 0 1.48-.6c.2-.13.39-.27.56-.4.17-.14.33-.25.48-.35.3-.2.52-.26.72-.22h.01l.06.02c.23.04.6.12.92.05a.92.92 0 0 0 .52-.33c.15-.17.23-.41.26-.7a.3.3 0 0 0-.6-.06.73.73 0 0 1-.12.39c-.05.06-.11.1-.2.11-.19.04-.42 0-.69-.06h-.03c-.44-.1-.84.08-1.18.3-.16.1-.34.23-.5.36h-.01l-.53.4c-.37.24-.77.43-1.23.5a2.92 2.92 0 0 1-1.7-.35c-.15-.06-.3-.13-.45-.22l-.28-.14a2.01 2.01 0 0 0-.88-.26c-.22 0-.43.05-.62.1l-.27.08h-.02l-.27.08c-.36.1-.63.12-.87-.02a.7.7 0 0 1-.33-.5 1.3 1.3 0 0 1 .23-.88ZM156.31 89.9c.17 0 .3.15.29.31l-.2 2.5a.3.3 0 0 1-.6-.02l.2-2.5c0-.17.15-.3.31-.29ZM137.33 91.33a.3.3 0 0 1 .14.4l-3.89 8.38c-.05.16 0 .33.11.46l4.47 2.78a.3.3 0 1 1-.32.5l-4.5-2.8a1.08 1.08 0 0 1-.31-1.18l3.9-8.4a.3.3 0 0 1 .4-.14Z" fill="#15847D"/></svg>