<svg width="424" height="424" viewBox="0 0 424 424" fill="none" xmlns="http://www.w3.org/2000/svg">
  <path opacity=".3" d="M235.38 0c-47.92 0-73.17 21.63-103.55 71.11C101.45 120.59 0 138.84 0 226.92S70.34 424 195.43 424C411.94 424 424 286.45 424 226.92s0-95.92-63.41-136.78C320.29 64.18 303.66 0 235.38 0z" fill="url(#paint0_linear)"/>
  <path d="M221.87 265.133V384.06M208.486 370.676l13.384 13.384 13.384-13.384" stroke="#0A1E8D" stroke-width="4.468"/>
  <path d="M128.405 310.717V171.236h38.083l13.33 14.757h136.625v124.724H128.405z" fill="#183DD1"/>
  <path d="M289.057 136.388c.793 0 1.436.643 1.436 1.436v125.652a.73.73 0 01-.681.755H144.044a.72.72 0 01-.68-.755V137.824c0-.793.642-1.436 1.436-1.436h144.257z" fill="#0A1E8D"/>
  <path fill-rule="evenodd" clip-rule="evenodd" d="M246.336 156.034H159.68v3.838h86.656v-3.838zm-67.122 46.584h-13.468v-3.837h13.468v3.837zm-19.534 2.241h5.781v3.837h-5.781v-3.837zm9.916 3.837a1.918 1.918 0 100-3.837 1.918 1.918 0 000 3.837zm4.147.001h5.781v-3.838h-5.781v3.838zm-14.063 6.14h19.832v-3.838H159.68v3.838zm1.918-12.219a1.919 1.919 0 100-3.838 1.919 1.919 0 000 3.838zm-1.918-28.188h86.656v3.838H159.68v-3.838zm5.781-12.33h-5.781v3.838h5.781V162.1zm4.135 3.838a1.919 1.919 0 10-.001-3.837 1.919 1.919 0 00.001 3.837zm3.478 2.228H159.68v3.838h13.394v-3.838zm4.147 3.838a1.919 1.919 0 100-3.838 1.919 1.919 0 000 3.838zm-3.454-6.078H184.5v-3.838h-10.733v3.838zm-14.087 74.833h54.506v3.838H159.68v-3.838zm5.781-6.078h-5.781v3.838h5.781v-3.838zm4.135 3.838a1.919 1.919 0 10-.001-3.837 1.919 1.919 0 00.001 3.837zm4.134 0h40.456v-3.838H173.73v3.838zm45.94 2.24h30.107v3.838H219.67v-3.838zm11.835-6.078H219.67v3.838h11.835v-3.838zm4.135 3.838a1.919 1.919 0 100-3.838 1.919 1.919 0 000 3.838zm20.191 4.159a1.919 1.919 0 11-3.838 0 1.919 1.919 0 013.838 0zm18.334 1.919h-16.131v-3.838h16.131v3.838zm-8.344-7.997a1.919 1.919 0 11-3.838 0 1.919 1.919 0 013.838 0zm8.356 1.919h-6.128v-3.838h6.128v3.838zm-34.402 0h19.992v-3.838h-19.992v3.838z" fill="#2250F4"/>
  <path d="M332.243 94.22c.793 0 1.436.642 1.436 1.436v125.651a.73.73 0 01-.681.755H187.231a.724.724 0 01-.498-.236.723.723 0 01-.183-.519V95.656c0-.794.643-1.437 1.436-1.437h144.257z" fill="#2250F4"/>
  <path fill-rule="evenodd" clip-rule="evenodd" d="M289.522 113.866h-86.656v3.837h86.656v-3.837zm-67.121 46.584h-13.469v-3.838h13.469v3.838zm-19.535 2.24h5.781v3.838h-5.781v-3.838zm9.916 3.838a1.92 1.92 0 100-3.839 1.92 1.92 0 000 3.839zm4.147 0h5.781v-3.838h-5.781v3.838zm-14.063 6.14h19.832v-3.838h-19.832v3.838zm1.919-12.218a1.919 1.919 0 10-.001-3.837 1.919 1.919 0 00.001 3.837zm-1.919-28.188h86.656v3.837h-86.656v-3.837zm5.781-12.33h-5.781v3.837h5.781v-3.837zm4.135 3.837a1.92 1.92 0 100-3.838 1.92 1.92 0 000 3.838zm3.478 2.229h-13.394v3.837h13.394v-3.837zm4.147 3.837a1.919 1.919 0 100-3.838 1.919 1.919 0 000 3.838zm-3.453-6.078h10.733v-3.838h-10.733v3.838zm-14.088 74.834h54.506v3.837h-54.506v-3.837zm5.781-6.079h-5.781v3.838h5.781v-3.838zm4.135 3.838a1.92 1.92 0 100-3.839 1.92 1.92 0 000 3.839zm4.134 0h40.456v-3.838h-40.456v3.838zm45.941 2.241h30.106v3.837h-30.106v-3.837zm11.834-6.079h-11.834v3.838h11.834v-3.838zm4.135 3.838a1.919 1.919 0 100-3.838 1.919 1.919 0 000 3.838zm20.191 4.16a1.919 1.919 0 11-3.837-.001 1.919 1.919 0 013.837.001zm18.334 1.918H301.22v-3.837h16.131v3.837zm-8.344-7.997a1.919 1.919 0 11-3.838 0 1.919 1.919 0 013.838 0zm8.356 1.919h-6.128v-3.838h6.128v3.838zm-34.402 0h19.993v-3.838h-19.993v3.838z" fill="#fff"/>
  <path d="M316.443 310.716l-188.039.001 28.087-104.254H344.53l-28.087 104.253z" fill="#183DD1"/>
  <path d="M129.514 311.016l-2.218-.598 28.316-105.104h160.832v2.297H157.372l-27.858 103.405z" fill="#587EF8"/>
  <g clip-path="url(#clip0)">
    <g filter="url(#filter0_d)">
      <path fill-rule="evenodd" clip-rule="evenodd" d="M163.858 264.24c0-3.355 2.713-6.075 6.06-6.075h93.879c3.347 0 6.061 2.727 6.061 6.075v63.85c0 3.355-2.714 6.075-6.061 6.075h-93.879c-3.347 0-6.06-2.727-6.06-6.075v-63.85z" fill="#fff"/>
    </g>
    <path fill-rule="evenodd" clip-rule="evenodd" d="M171.415 264.231a1.494 1.494 0 01-1.487-1.5c0-.829.666-1.5 1.487-1.5.821 0 1.487.671 1.487 1.5 0 .828-.666 1.5-1.487 1.5zm4.513 0a1.494 1.494 0 01-1.487-1.5c0-.829.666-1.5 1.487-1.5.821 0 1.487.671 1.487 1.5 0 .828-.666 1.5-1.487 1.5zm4.513 0a1.494 1.494 0 01-1.487-1.5c0-.829.666-1.5 1.487-1.5.821 0 1.487.671 1.487 1.5 0 .828-.666 1.5-1.487 1.5z" fill="#E9EBEB"/>
    <path opacity=".2" fill-rule="evenodd" clip-rule="evenodd" d="M201.349 283.589l-5.622.632v20.53h68v-22.836l-1.529 9.11-2.055 4.435-2.493-3.881-2.905-2.466-2.093-4.536-4.007-1.602-3.393 4.089-4.086-3.831-3.369 6.405-4.434 3.858-5.563-2.471-4.038 4.991-4.468-2.52-2.331-6.839-4.758 2.456-2.882-4.958-3.001-3.762-4.973 3.196zm62.378 47.804v-11.534l-5.621-.609-4.957-3.842-3.018 4.388-2.882 4.778-4.758-2.367-2.331 6.593-4.468 2.429-4.038-4.812-5.563 2.383-4.434-3.719-3.368-6.174-4.087 3.692-3.392-3.941-4.007 1.544-2.094 4.372-2.905 2.378-2.493 3.741-2.055-4.276-1.529-8.726v13.702h68z" fill="url(#paint1_linear)"/>
    <path fill-rule="evenodd" clip-rule="evenodd" d="M248.271 282.338l-3.08 3.789-3.868-3.38a.37.37 0 00-.569.105l-3.212 6.035-4.221 3.893-5.27-2.479a.369.369 0 00-.445.103l-3.756 4.682-4.121-2.125-2.208-6.766a.37.37 0 00-.521-.214l-4.471 2.326-2.654-4.486-2.993-4.045a.37.37 0 00-.507-.084l-4.846 3.356-5.472.594a.37.37 0 00.08.737l5.565-.604a.376.376 0 00.17-.064l4.629-3.206 2.759 3.726 2.811 4.755c.1.169.314.23.488.14l4.395-2.286 2.119 6.496c.031.093.096.17.183.215l4.524 2.333a.37.37 0 00.457-.097l3.763-4.691 5.232 2.461a.368.368 0 00.407-.063l4.45-4.104.075-.098 3.024-5.68 3.818 3.336a.369.369 0 00.586-.142l3.08-3.788 3.592 1.46 2.019 4.447.094.127 2.91 2.526 2.382 3.803c.156.25.527.225.649-.043l2.081-4.571.03-.1 1.294-8.764a.37.37 0 10-.731-.108l-1.287 8.712-1.775 3.898-2.046-3.268-.071-.083-2.891-2.509-2.047-4.508a.366.366 0 00-.197-.19l-3.981-1.618a.37.37 0 00-.426.109zm-30.14 36.111l-3.868 3.379-3.08-3.788a.369.369 0 00-.425-.11l-3.981 1.618a.372.372 0 00-.198.19l-2.046 4.508-2.891 2.509-.071.084-2.047 3.267-1.775-3.898-1.287-8.712a.37.37 0 10-.731.109l1.295 8.764.029.099 2.082 4.571a.369.369 0 00.649.043l2.381-3.802 2.91-2.526.095-.127 2.019-4.447 3.592-1.46 3.079 3.787a.369.369 0 00.586.143l3.819-3.336 3.023 5.68.076.098 4.449 4.103a.369.369 0 00.407.063l5.232-2.461 3.763 4.691c.11.137.301.178.457.097l4.525-2.333a.368.368 0 00.182-.214l2.119-6.496 4.395 2.286a.37.37 0 00.488-.14l2.811-4.755 2.759-3.726 4.629 3.206c.051.035.11.056.171.063l5.565.604a.37.37 0 00.079-.737l-5.472-.594-4.846-3.355a.368.368 0 00-.507.084l-2.992 4.045-2.654 4.485-4.472-2.325a.369.369 0 00-.521.214l-2.207 6.766-4.122 2.125-3.756-4.682a.369.369 0 00-.445-.104l-5.27 2.479-4.221-3.892-3.212-6.035a.37.37 0 00-.569-.105z" fill="#0A1E8D"/>
    <path fill-rule="evenodd" clip-rule="evenodd" d="M197.856 261.231h63.919c1.189 0 2.153 1.007 2.153 2.25 0 1.242-.964 2.25-2.153 2.25h-63.919c-1.19 0-2.154-1.008-2.154-2.25 0-1.243.964-2.25 2.154-2.25zm-25.771 16.5h16.912c1.191 0 2.157 1.007 2.157 2.25 0 1.242-.966 2.25-2.157 2.25h-16.912c-1.191 0-2.157-1.008-2.157-2.25 0-1.243.966-2.25 2.157-2.25zm0 6h16.912c1.191 0 2.157 1.007 2.157 2.25 0 1.242-.966 2.25-2.157 2.25h-16.912c-1.191 0-2.157-1.008-2.157-2.25 0-1.243.966-2.25 2.157-2.25zm0 6h16.912c1.191 0 2.157 1.007 2.157 2.25 0 1.242-.966 2.25-2.157 2.25h-16.912c-1.191 0-2.157-1.008-2.157-2.25 0-1.243.966-2.25 2.157-2.25zm0 6h16.912c1.191 0 2.157 1.007 2.157 2.25 0 1.242-.966 2.25-2.157 2.25h-16.912c-1.191 0-2.157-1.008-2.157-2.25 0-1.243.966-2.25 2.157-2.25z" fill="#F7FAFB"/>
  </g>
  <g clip-path="url(#clip1)">
    <g filter="url(#filter1_d)">
      <path fill-rule="evenodd" clip-rule="evenodd" d="M280.68 264.24c0-3.355 2.713-6.075 6.06-6.075h93.879c3.347 0 6.061 2.727 6.061 6.075v63.85c0 3.355-2.714 6.075-6.061 6.075H286.74c-3.347 0-6.06-2.727-6.06-6.075v-63.85z" fill="#fff"/>
    </g>
    <path fill-rule="evenodd" clip-rule="evenodd" d="M288.25 264.231a1.5 1.5 0 11.001-3.001 1.5 1.5 0 01-.001 3.001zm4.5 0a1.5 1.5 0 11.001-3.001 1.5 1.5 0 01-.001 3.001zm4.5 0a1.5 1.5 0 11.001-3.001 1.5 1.5 0 01-.001 3.001z" fill="#E9EBEB"/>
    <path fill-rule="evenodd" clip-rule="evenodd" d="M314.678 261.231h63.919c1.189 0 2.153 1.007 2.153 2.25 0 1.242-.964 2.25-2.153 2.25h-63.919c-1.19 0-2.154-1.008-2.154-2.25 0-1.243.964-2.25 2.154-2.25zm-25.77 16.5h16.911c1.191 0 2.157 1.007 2.157 2.25 0 1.242-.966 2.25-2.157 2.25h-16.911c-1.192 0-2.158-1.008-2.158-2.25 0-1.243.966-2.25 2.158-2.25zm0 6h16.911c1.191 0 2.157 1.007 2.157 2.25 0 1.242-.966 2.25-2.157 2.25h-16.911c-1.192 0-2.158-1.008-2.158-2.25 0-1.243.966-2.25 2.158-2.25zm0 6h16.911c1.191 0 2.157 1.007 2.157 2.25 0 1.242-.966 2.25-2.157 2.25h-16.911c-1.192 0-2.158-1.008-2.158-2.25 0-1.243.966-2.25 2.158-2.25zm0 6h16.911c1.191 0 2.157 1.007 2.157 2.25 0 1.242-.966 2.25-2.157 2.25h-16.911c-1.192 0-2.158-1.008-2.158-2.25 0-1.243.966-2.25 2.158-2.25z" fill="#F7FAFB"/>
    <path d="M323.173 288.824h3.035c2.514 0 4.552 2.059 4.552 4.599v26.061h-12.14v-26.061c0-2.54 2.038-4.599 4.553-4.599z" fill="#2250F4"/>
    <path d="M323.173 303.388h3.035c2.514 0 4.552 2.059 4.552 4.598v11.498h-12.14v-11.498c0-2.539 2.038-4.598 4.553-4.598z" fill="#0A1E8D"/>
    <path d="M345.178 291.89h3.035c2.514 0 4.553 2.059 4.553 4.599v22.995h-12.141v-22.995c0-2.54 2.038-4.599 4.553-4.599z" fill="#2250F4"/>
    <path d="M345.178 305.687h3.035c2.514 0 4.553 2.059 4.553 4.599v9.198h-12.141v-9.198c0-2.54 2.038-4.599 4.553-4.599z" fill="#0A1E8D"/>
    <path d="M367.183 283.459h3.035c2.514 0 4.553 2.419 4.553 5.404v30.621H362.63v-30.621c0-2.985 2.038-5.404 4.553-5.404z" fill="#2250F4"/>
    <path d="M367.183 299.555h3.035c2.514 0 4.553 2.059 4.553 4.599v15.33H362.63v-15.33c0-2.54 2.038-4.599 4.553-4.599z" fill="#0A1E8D"/>
  </g>
  <path d="M110.95 410.071c-7.245 0-16.267-2.137-17.984-3.165.659-2.692 1.47-5.806.69-10.872-.556-3.557-2.23-8.551-3.937-14.11h12.794c.247 8.262 1.007 13.729 1.881 15.209 4.788 8.005 15.579 10.37 21.56 11.818.052.011.093.031.123.041.709.381-8.149 1.079-15.127 1.079z" fill="#FF927C"/>
  <path d="M111.67 412.98c-8.016 0-19.505 1.387-19.33-2.437.061-1.222.328-2.383.626-3.637 1.717 1.028 10.739 3.165 17.984 3.165 6.978 0 15.005-.58 15.128-1.079 2.302.555 3.864.976 4.049 1.551 1.243 3.773-10.452 2.437-18.457 2.437z" fill="#061475"/>
  <path d="M24.061 383.445c6.66-1.202 7.183 5.066 6.794 10.123-.392 5.066 3.237 13.596 6.042 14.922.709.329 1.407.596 2.087.863-1.79-1.202-4.256-5.138-4.595-10.194-.37-5.529.894-9.485 3.915-15.714-1.839-1.747-5.693-4.851-10.297-5.436-.678 1.778-1.202 2.991-1.48 3.432-.657 1.049-1.55 1.377-2.466 2.004z" fill="#FF927C"/>
  <path fill-rule="evenodd" clip-rule="evenodd" d="M52.867 257.216c1.357 19.033 11.777 39.247 17.152 51.507v.011c1.069 9.722 0 16.257-1.901 20.059-1.902 3.804-29.063 55.361-29.063 55.361l-.75-.709c-1.84-1.747-6.587-4.85-11.192-5.435 2.796-7.256 9.25-23.905 12.56-35.548 4.11-14.5 7.285-15.097 9.072-19.485 1.779-4.398-11.53-55.258-8.673-65.761h12.794z" fill="#061475"/>
  <path fill-rule="evenodd" clip-rule="evenodd" d="M91.28 257.216l8.047 67.149s-.102 19.916 1.101 34.961c.833 10.36 3.114 22.599 3.114 22.599h-14.85s-11.664-30.203-12.856-38.302c-1.192-8.098.504-15.118.504-19.115 0-1.531-2.755-7.624-6.32-15.774v-.011c-5.376-12.26-15.796-32.474-17.153-51.507H91.28z" fill="#061475"/>
  <path d="M24.616 412.939c5.56.452 18.693.288 18.693.288-.524-2.312-2.291-3.083-4.326-3.874-.68-.268-1.377-.534-2.086-.863-2.806-1.326-6.433-9.856-6.043-14.922.39-5.057-.134-11.325-6.793-10.123-1.049.709-2.108 1.819-2.764 4.882-.598 2.774-2.252 24.15 3.319 24.612z" fill="#061475"/>
  <path d="M88.088 222.625c-1.052-10.996-2.588-26.229-3.136-28.557-.108-.458-.191-.896-.27-1.313-.436-2.294-.755-3.973-4.445-5.192-12.617-1.37-32.528-.456-34.745 1.498-3.125 2.765-21.191 28.015-21.428 33.8-.154 4.06 7.543 17.173 12.137 24.623a229.447 229.447 0 00-.585 9.732h56.449l-3.977-34.591c.072.127-.072-.126 0 0z" fill="#183DD1"/>
  <path d="M95.162 199.647c-8.355 3.644-26.178 9.781-30.633 5.186-1.929-1.989-3.03-3.911-3.584-5.705.715-2.268 1.521-3.846 2.407-4.374 6.34-3.777 20.35-8.672 28.808-11.628 3.535-1.235 6.1-2.131 6.73-2.465 2.976-1.582 5.124-3.653 9.332-9.05 1.694-2.171 4.779-6.589 7.912-11.209l8.737 4.616c-1.028 2.011-2.247 4.54-3.549 7.238-3.822 7.926-8.346 17.307-10.745 19.264-1.424 1.16-7.701 4.54-15.366 8.117l-.049.01zM37.168 247.524c1.553-19.207 5.302-41.119 5.339-41.338l-.986-.17c-.037.219-3.793 22.175-5.349 41.429l.996.079z" fill="#183DD1"/>
  <path d="M93.74 200.355l-.398-.917c-4.116 1.788-10.28 4.346-16.285 6.377l.32.948c6.037-2.042 12.23-4.611 16.362-6.408z" fill="#183DD1"/>
  <path d="M68.83 176.794s9.68-2.1 11-4.105c1.32-2.007-.422-3.909-.264-6.285.159-2.377-.487-3.848-.487-4.699 0-.85 2.127-1.488 1.773-2.977-.356-1.49-6.099-.284-5.815-3.262.283-2.978-2.55-9.033-10.385-8.93 0 0-3.523 6.483-1.922 15.769 1.6 9.286 6.1 14.489 6.1 14.489z" fill="#FF927C"/>
  <path d="M75.265 157.217c1.468-.622 1.886-1.773 1.903-1.823l-.942-.335c-.012.032-.308.797-1.351 1.236l.39.922z" fill="#003F5E"/>
  <path d="M78.734 164.856c.366 0 .686-.055.916-.127l-.296-.955c-.061.017-1.55.449-2.5-.857l-.808.587c.77 1.058 1.847 1.352 2.688 1.352z" fill="#EF5C8A"/>
  <path d="M73.718 173.378c-.584-7.196-7.776-10.413-5.276-14.786 2.614-4.575 6.878-11.213 1.589-14.956-7.18-5.082-21.093.7-24.3 8.184-3.208 7.485.623 8.821-.535 12.83-1.158 4.01-3.546 3.086-3.813 8.166-.269 5.078 2.298 5.377 1.941 10.01-.355 4.634-8.91 8.571-2.563 18.43 8.017 12.453 35.812 7.377 32.956-27.878z" fill="#061475"/>
  <path d="M123.557 164.344c1.509-2.759 6.692-5.234 7.46-5.76a43.32 43.32 0 004.67-5.426c.824-1.192 3.224-3.755 2.838-4.105a4.305 4.305 0 00-3.637.347c-1.511.762-3.714 3.501-4.563 3.684-.849.183-2.516-.744-2.369-1.824.312-2.253 4.148-7.789 5.052-9.662.904-1.873 1.466-4.921.931-5.099-.536-.179-5.087 5.345-5.832 6.182a63.475 63.475 0 00-5.256 6.865c-.395.779-3.2 5.576-6.383 11.071l7.089 3.727z" fill="#FF927C"/>
  <path d="M135.305 153.326s.269-4.246-.081-5.001c-.349-.754-1.739-3.159-3.029-3.695-.574-.25-4.675.524-6.597 1.333l-.878 4.507c1.207-.398 4.88-2.28 5.682-2.06a9.905 9.905 0 012.371 1.761c.417.461 1.047 4.165 2.532 3.155z" fill="#FF927C"/>
  <defs>
    <linearGradient id="paint0_linear" x1="0" y1="424" x2="0" y2="0" gradientUnits="userSpaceOnUse">
      <stop stop-color="#2250F4"/>
      <stop offset="1" stop-color="#fff" stop-opacity=".01"/>
    </linearGradient>
    <linearGradient id="paint1_linear" x1="195.041" y1="280.393" x2="195.041" y2="332.422" gradientUnits="userSpaceOnUse">
      <stop stop-color="#2250F4"/>
      <stop offset=".48" stop-color="#2250F4" stop-opacity="0"/>
      <stop offset=".666" stop-color="#2250F4"/>
      <stop offset="1" stop-color="#2250F4" stop-opacity="0"/>
    </linearGradient>
    <clipPath id="clip0">
      <path fill="#fff" transform="translate(163.858 258.165)" d="M0 0h106v76H0z"/>
    </clipPath>
    <clipPath id="clip1">
      <path fill="#fff" transform="translate(280.68 258.165)" d="M0 0h106v76H0z"/>
    </clipPath>
    <filter id="filter0_d" x="162.858" y="257.165" width="108" height="78" filterUnits="userSpaceOnUse" color-interpolation-filters="sRGB">
      <feFlood flood-opacity="0" result="BackgroundImageFix"/>
      <feColorMatrix in="SourceAlpha" values="0 0 0 0 0 0 0 0 0 0 0 0 0 0 0 0 0 0 127 0"/>
      <feOffset/>
      <feGaussianBlur stdDeviation=".5"/>
      <feColorMatrix values="0 0 0 0 0.054902 0 0 0 0 0.117647 0 0 0 0 0.145098 0 0 0 0.12 0"/>
      <feBlend in2="BackgroundImageFix" result="effect1_dropShadow"/>
      <feBlend in="SourceGraphic" in2="effect1_dropShadow" result="shape"/>
    </filter>
    <filter id="filter1_d" x="279.68" y="257.165" width="108" height="78" filterUnits="userSpaceOnUse" color-interpolation-filters="sRGB">
      <feFlood flood-opacity="0" result="BackgroundImageFix"/>
      <feColorMatrix in="SourceAlpha" values="0 0 0 0 0 0 0 0 0 0 0 0 0 0 0 0 0 0 127 0"/>
      <feOffset/>
      <feGaussianBlur stdDeviation=".5"/>
      <feColorMatrix values="0 0 0 0 0.054902 0 0 0 0 0.117647 0 0 0 0 0.145098 0 0 0 0.12 0"/>
      <feBlend in2="BackgroundImageFix" result="effect1_dropShadow"/>
      <feBlend in="SourceGraphic" in2="effect1_dropShadow" result="shape"/>
    </filter>
  </defs>
</svg>
