<?xml version="1.0" encoding="UTF-8" standalone="no"?>
<svg
   xmlns:dc="http://purl.org/dc/elements/1.1/"
   xmlns:cc="http://creativecommons.org/ns#"
   xmlns:rdf="http://www.w3.org/1999/02/22-rdf-syntax-ns#"
   xmlns:svg="http://www.w3.org/2000/svg"
   xmlns="http://www.w3.org/2000/svg"
   xmlns:sodipodi="http://sodipodi.sourceforge.net/DTD/sodipodi-0.dtd"
   xmlns:inkscape="http://www.inkscape.org/namespaces/inkscape"
   inkscape:version="1.0 (4035a4f, 2020-05-01)"
   sodipodi:docname="CCTVNewLogoaaa.svg"
   id="svg116"
   preserveAspectRatio="xMidYMid meet"
   viewBox="0 0 5690 2140"
   height="214px"
   width="569px"
   version="1.0">
  <metadata
     id="metadata122">
    <rdf:RDF>
      <cc:Work
         rdf:about="">
        <dc:format>image/svg+xml</dc:format>
        <dc:type
           rdf:resource="http://purl.org/dc/dcmitype/StillImage" />
        <dc:title></dc:title>
      </cc:Work>
    </rdf:RDF>
  </metadata>
  <defs
     id="defs120" />
  <sodipodi:namedview
     inkscape:current-layer="svg116"
     inkscape:window-maximized="0"
     inkscape:window-y="23"
     inkscape:window-x="0"
     inkscape:cy="103.32424"
     inkscape:cx="308.15451"
     inkscape:zoom="1.055224"
     showgrid="false"
     id="namedview118"
     inkscape:window-height="480"
     inkscape:window-width="731"
     inkscape:pageshadow="2"
     inkscape:pageopacity="0"
     guidetolerance="10"
     gridtolerance="10"
     objecttolerance="10"
     borderopacity="1"
     bordercolor="#666666"
     pagecolor="#ffffff" />
  <g
     stroke="none"
     fill="#000000"
     id="layer101">
    <path
       id="path84"
       d="M390 2005 l0 -74 -142 -3 -143 -3 0 -205 0 -205 143 -3 142 -3 0 -34 c0 -35 0 -35 45 -35 45 0 45 0 45 35 l0 35 140 0 140 0 0 175 c0 106 -4 184 -11 198 -17 38 -50 47 -164 47 l-105 0 0 75 0 75 -45 0 -45 0 0 -75z m-2 -287 l-3 -123 -90 0 -90 0 -3 123 -3 122 96 0 96 0 -3 -122z m272 -3 l0 -125 -90 0 -90 0 0 125 0 125 90 0 90 0 0 -125z" />
    <path
       id="path86"
       d="M872 1763 l3 -318 335 0 335 0 3 288 2 288 -29 30 -29 29 -311 0 -311 0 2 -317z m576 -5 l2 -238 -240 0 -240 0 0 240 0 240 238 -2 237 -3 3 -237z" />
    <path
       id="path88"
       d="M1004 1926 c-3 -8 -4 -25 -2 -38 3 -21 8 -23 76 -26 l72 -3 0 -39 0 -40 -75 0 -75 0 0 -35 0 -35 75 0 c73 0 75 -1 75 -25 0 -23 -3 -24 -72 -27 l-73 -3 -3 -37 -3 -38 206 0 206 0 -3 38 -3 37 -77 3 c-75 3 -78 4 -78 27 0 24 2 25 80 25 l80 0 0 35 0 35 -80 0 -80 0 0 40 c0 36 3 40 25 40 18 0 25 -5 25 -20 0 -18 7 -20 55 -20 l56 0 -3 58 -3 57 -198 3 c-165 2 -198 0 -203 -12z" />
    <path
       id="path90"
       d="M1947 2074 c-4 -4 -7 -38 -7 -75 l0 -68 -137 -3 -138 -3 -3 -207 -2 -208 140 0 140 0 0 -36 0 -35 48 3 c45 3 47 4 50 35 l3 32 137 3 137 3 3 177 c2 174 2 177 -22 205 -24 27 -27 28 -140 31 l-115 4 -3 71 -3 72 -40 3 c-23 2 -44 0 -48 -4z m-7 -359 l0 -125 -90 0 -90 0 0 125 0 125 90 0 90 0 0 -125z m278 3 l-3 -123 -87 -3 -88 -3 0 126 0 125 90 0 91 0 -3 -122z" />
    <path
       id="path92"
       d="M2430 2036 c0 -34 4 -46 15 -46 59 0 250 -100 263 -137 3 -10 -29 -13 -137 -13 l-141 0 0 -40 c0 -33 3 -40 20 -40 19 0 20 -7 20 -125 l0 -125 140 0 140 0 0 -36 0 -35 48 3 c45 3 47 4 50 36 l3 32 135 0 134 0 0 125 0 125 25 0 c23 0 25 4 25 40 l0 40 -146 0 -146 0 33 34 c38 41 134 91 207 108 l52 13 0 44 0 43 -46 -7 c-83 -12 -200 -61 -264 -109 -62 -47 -73 -49 -98 -14 -26 36 -194 107 -289 123 l-43 7 0 -46z m320 -361 l0 -85 -90 0 -90 0 0 85 0 85 90 0 90 0 0 -85z m280 0 l0 -85 -90 0 -90 0 0 85 0 85 90 0 90 0 0 -85z" />
    <path
       id="path94"
       d="M4190 1980 c0 -55 -2 -100 -4 -100 -2 0 -24 20 -49 45 -26 25 -51 45 -57 45 -6 0 -10 -24 -10 -56 0 -54 2 -57 54 -109 30 -30 65 -74 79 -99 l25 -45 -76 -3 -77 -3 0 -40 0 -40 59 -3 59 -3 -34 -35 -34 -36 35 -29 34 -29 43 42 c41 40 42 43 28 65 -15 23 -15 23 35 23 27 0 50 2 50 4 0 1 -11 33 -24 70 l-24 66 24 29 c18 22 24 41 24 77 l0 48 -35 -34 -35 -34 0 142 0 142 -45 0 -45 0 0 -100z" />
    <path
       id="path96"
       d="M4380 2077 c0 -2 34 -70 75 -150 l75 -147 0 -85 0 -85 45 0 45 0 0 99 c0 96 1 100 23 103 21 3 22 8 25 91 l3 87 84 0 85 0 0 45 0 45 -114 0 c-137 0 -139 -2 -146 -109 l-5 -76 -50 92 -50 93 -47 0 c-27 0 -48 -2 -48 -3z" />
    <path
       id="path98"
       d="M4957 2073 c-4 -3 -7 -71 -7 -150 l0 -143 333 2 332 3 3 103 c3 115 -11 161 -54 181 -27 12 -595 16 -607 4z m553 -143 l0 -70 -230 0 -230 0 0 70 0 70 230 0 230 0 0 -70z" />
    <path
       id="path100"
       d="M3614 2062 c-24 -17 -44 -59 -44 -94 l0 -38 -135 0 -135 0 0 -205 0 -205 135 0 135 0 0 -35 0 -35 50 0 50 0 0 35 0 35 140 0 140 0 0 176 0 176 -29 29 c-29 29 -31 29 -140 29 l-111 0 0 30 0 30 170 0 170 0 0 40 0 40 -192 0 c-106 0 -198 -4 -204 -8z m-44 -252 l0 -40 -90 0 -90 0 0 40 0 40 90 0 90 0 0 -40z m280 0 l0 -40 -90 0 -90 0 0 40 0 40 90 0 90 0 0 -40z m-280 -170 l0 -40 -90 0 -90 0 0 40 0 40 90 0 90 0 0 -40z m280 0 l0 -40 -90 0 -90 0 0 40 0 40 90 0 90 0 0 -40z" />
    <path
       id="path102"
       d="M4380 1640 l0 -180 200 0 200 0 0 180 0 180 -45 0 -45 0 0 -145 0 -145 -110 0 -110 0 0 145 0 145 -45 0 -45 0 0 -180z" />
    <path
       id="path104"
       d="M5563 1745 c-17 -12 -76 -15 -334 -17 l-314 -3 0 -35 c0 -30 3 -35 26 -38 19 -2 51 -31 113 -103 l87 -99 60 0 c32 0 59 4 59 9 0 5 -4 11 -9 13 -7 3 -102 111 -140 161 -13 16 -3 17 170 17 l183 0 -32 -33 c-31 -32 -41 -57 -23 -57 5 0 19 -11 32 -24 l23 -24 98 90 c87 81 116 118 90 118 -5 0 -19 9 -32 20 -28 24 -30 24 -57 5z" />
    <path
       id="path106"
       d="M1100 1096 c-121 -41 -168 -66 -247 -129 -86 -69 -139 -142 -168 -233 -41 -123 -29 -236 39 -363 33 -61 145 -158 240 -207 144 -75 204 -86 469 -91 l227 -5 0 136 0 136 -215 0 c-241 0 -271 6 -362 73 -89 65 -127 190 -84 274 32 63 80 109 145 139 55 25 65 26 160 21 85 -5 207 -29 268 -52 10 -4 20 7 32 37 10 24 24 57 32 73 7 17 23 52 34 80 l21 49 -23 18 c-13 9 -41 21 -63 27 -22 5 -71 19 -110 30 -54 16 -96 21 -185 20 -103 0 -125 -4 -210 -33z" />
    <path
       id="path108"
       d="M2090 1097 c-117 -41 -158 -62 -238 -122 -125 -94 -192 -212 -200 -352 -4 -72 -1 -92 24 -164 25 -71 39 -92 106 -164 64 -68 94 -91 165 -128 49 -25 126 -56 173 -68 77 -22 105 -24 305 -24 l220 0 3 133 3 132 -216 0 c-211 0 -216 0 -281 27 -154 64 -223 206 -159 327 34 64 80 107 145 135 50 22 64 23 155 18 85 -6 156 -20 260 -52 18 -5 26 6 64 92 62 144 64 151 38 167 -12 8 -71 28 -131 45 -94 27 -125 31 -225 31 -105 -1 -125 -4 -211 -33z" />
    <path
       id="path110"
       d="M3100 730 l0 -390 -185 0 -186 0 3 -132 3 -133 592 -3 592 -2 15 22 c8 13 21 45 30 71 9 27 24 63 33 80 9 18 20 46 24 62 4 17 28 80 53 140 25 61 46 114 46 118 0 4 10 29 21 55 12 26 30 70 39 97 9 28 21 50 26 50 5 0 19 -25 31 -55 12 -30 29 -72 38 -92 9 -21 20 -50 25 -65 9 -29 63 -163 80 -198 5 -11 16 -38 24 -60 36 -101 75 -197 86 -210 10 -12 43 -15 162 -15 l150 0 -5 23 c-5 23 -20 61 -86 223 -22 56 -41 104 -41 108 0 4 -9 26 -19 49 -22 49 -57 135 -77 192 -8 22 -19 49 -24 60 -19 40 -72 171 -81 202 -5 18 -16 45 -24 60 -8 15 -22 52 -31 80 l-17 53 -192 0 -193 0 -7 -27 c-7 -33 -97 -264 -131 -341 -13 -29 -24 -57 -24 -63 0 -6 -11 -35 -25 -65 -14 -30 -25 -59 -25 -64 0 -6 -11 -33 -25 -62 -14 -28 -25 -58 -25 -65 0 -8 -9 -32 -20 -53 l-20 -40 -160 0 -160 0 0 390 0 390 -145 0 -145 0 0 -390z" />
  </g>
  <g
     style="fill:#ff0000"
     stroke="none"
     fill="#ff0000"
     id="layer102">
    <path
       style="fill:#ff0000"
       id="path113"
       d="M4750 945 l0 -175 180 0 180 0 0 175 0 175 -180 0 -180 0 0 -175z" />
  </g>
  <path
     transform="scale(10)"
     id="path124"
     d="m 475.16063,94.494816 v -17.33432 h 17.79863 17.79863 v 17.33432 17.334324 h -17.79863 -17.79863 z"
     style="fill:#ff0000;stroke:#ff0000;stroke-width:0.309541;stroke-opacity:0" />
  <path
     transform="scale(10)"
     id="path126"
     d="m 475.16063,94.494816 v -17.33432 h 17.79863 17.79863 v 17.33432 17.334324 h -17.79863 -17.79863 z"
     style="fill:#ff0000;stroke:#ff0000;stroke-width:0.309541;stroke-opacity:0" />
  <path
     transform="scale(10)"
     id="path128"
     d="m 475.16063,94.494816 v -17.33432 h 17.79863 17.79863 v 17.33432 17.334324 h -17.79863 -17.79863 z"
     style="fill:#ff0000;stroke:#ff0000;stroke-width:0.309541;stroke-opacity:0" />
</svg>
