<?xml version="1.0" encoding="utf-8"?>
<!-- Generator: Adobe Illustrator 25.4.1, SVG Export Plug-In . SVG Version: 6.00 Build 0)  -->
<svg version="1.1" id="Layer_1" xmlns="http://www.w3.org/2000/svg" xmlns:xlink="http://www.w3.org/1999/xlink" x="0px" y="0px"
	 viewBox="0 0 174.9 112.7" style="enable-background:new 0 0 174.9 112.7;" xml:space="preserve">
<g>
	<path d="M6.4,59h10.1L22,97.1h0.2L27.6,59h10.2l-9.3,50.1H15.8L6.4,59z"/>
	<path d="M40.8,66.8h9.8v42.3h-9.8V66.8z"/>
	<path d="M54.9,66.8h9.8v42.3h-9.8V66.8z M59.8,88.7h7.2c1.7,0,3-0.6,3.8-1.7c0.8-1.1,1.2-2.9,1.2-5.3v-0.1c0-2.4-0.4-4.2-1.2-5.3
		c-0.8-1.1-2.1-1.6-3.8-1.6h-7.2v-7.9h9c2.8,0,5.2,0.6,7.2,1.8c2,1.2,3.5,2.9,4.5,5.1c1,2.2,1.5,4.9,1.5,7.9v0.1
		c0,3-0.5,5.7-1.5,7.9c-1,2.2-2.5,3.9-4.5,5.1c-2,1.2-4.4,1.8-7.2,1.8h-9V88.7z"/>
	<g>
		<path id="XMLID_00000095309786467907924740000006709531068163453847_" d="M106,6.2c-0.5-1.6-2.5-2.5-4.5-2.2c-2,0.4-3.2,2-2.8,3.5
			c0.5,1.6,2.5,2.5,4.5,2.2C105.3,9.4,106.5,7.8,106,6.2z"/>
		<path id="XMLID_00000046312764401698513210000008675118151884920201_" d="M41.2,14.6c-0.6-1.9-3-3.1-5.5-2.6
			c-2.4,0.5-3.9,2.4-3.3,4.3c0.6,1.9,3,3.1,5.5,2.6C40.3,18.4,41.8,16.5,41.2,14.6z"/>
		<path id="XMLID_00000130635629709982767530000016139798683958643342_" d="M157.2,57.6c-1-3.1-3.1-5.8-6.1-7.9
			c-3-2.1-6.9-3.5-11.3-4.2c-4.3-0.7-9.2-0.7-14.3,0.1l-27.5,4.3c-1.8-2.5-4.6-4.4-8-5.3l11.5-33.9c-0.4,0-0.7-0.1-1.1-0.2L86.4,44
			c-1.5-0.1-3,0-4.5,0.3c-1.7,0.3-3.3,0.9-4.7,1.6L41.3,18.5c-0.3,0.3-0.6,0.5-1,0.7l33.6,29.1c-1.7,1.7-2.8,3.7-3.1,5.9L41,58.8
			l95.9,1.8c0,0,10.4-0.2,11.6,3.7c0.3,1,0.5,2,0.6,3l0.6,17.4l1.2-2.9l5.7-14.1C158,64.2,158.2,60.7,157.2,57.6z"/>
	</g>
	<polygon id="XMLID_00000003800343907069565160000010506889464198625932_" points="133.7,66.6 127.8,77.9 117.6,97.5 116.4,81.9 
		115.2,66.6 105.4,66.6 85.1,66.6 83.3,74.9 93.6,74.9 90.2,91.2 86.4,109 95.9,109 100.5,87.5 103.1,74.9 106.2,74.9 107.2,85.2 
		109.5,109 120.2,109 139.2,73.8 143.1,66.6 	"/>
	<g>
		<g>
			<path d="M131.1,108.7c-0.4-0.4-0.6-0.8-0.6-1.3s0.2-1,0.6-1.3s0.8-0.6,1.4-0.6s1,0.2,1.3,0.6s0.6,0.8,0.6,1.3s-0.2,1-0.6,1.3
				s-0.8,0.6-1.3,0.6S131.5,109.1,131.1,108.7z"/>
			<path d="M136.5,96.5h3.4v2.1h0.1c0.3-0.7,0.7-1.3,1.3-1.7s1.4-0.6,2.2-0.6c0.6,0,1.1,0.1,1.6,0.3s0.9,0.5,1.2,0.9
				s0.6,0.9,0.7,1.4h0.1c0.2-0.5,0.5-1,0.8-1.4s0.8-0.7,1.3-0.9s1.1-0.3,1.7-0.3c0.8,0,1.5,0.2,2.2,0.5s1.1,0.8,1.4,1.5
				s0.5,1.4,0.5,2.2v8.6h-3.4v-7.7c0-0.5-0.1-0.9-0.2-1.2s-0.4-0.6-0.7-0.8s-0.7-0.3-1.1-0.3c-0.4,0-0.8,0.1-1.1,0.3
				s-0.6,0.5-0.8,0.8s-0.3,0.8-0.3,1.2v7.6h-3.3v-7.8c0-0.5-0.1-0.8-0.2-1.2s-0.4-0.6-0.7-0.7s-0.7-0.3-1.1-0.3
				c-0.4,0-0.8,0.1-1.1,0.3s-0.6,0.5-0.8,0.8s-0.3,0.8-0.3,1.2v7.6h-3.4V96.5z"/>
			<path d="M160.2,102.8l-3.9-6.3h3.9l2.3,4.2h0.1l2.2-4.2h3.7l-3.9,6.2l3.9,6.4h-3.7l-2.4-4.3h-0.1l-2.4,4.3h-3.6L160.2,102.8z"/>
		</g>
	</g>
</g>
</svg>
