<?xml version="1.0" encoding="utf-8"?>
<!-- Generator: Adobe Illustrator 22.1.0, SVG Export Plug-In . SVG Version: 6.00 Build 0)  -->
<svg version="1.1" id="Layer_1" xmlns="http://www.w3.org/2000/svg" xmlns:xlink="http://www.w3.org/1999/xlink" x="0px" y="0px"
	 viewBox="0 0 283.5 100" style="enable-background:new 0 0 283.5 100;" xml:space="preserve">
<style type="text/css">
	.st0{fill:#FFFFFF;}
	.st1{fill-rule:evenodd;clip-rule:evenodd;fill:#FFFFFF;}
</style>
<g>
	<g>
		<g>
			<path class="st0" d="M60.3,12.5L35.4,63.4l-7.2-50.9H9.1l11.6,76h14.4l39.1-76H60.3z M70.1,88.5h17.1l13.4-76H83.5L70.1,88.5z
				 M142.6,12.5h-24.2l-13.4,76h17.1l5.3-29.8h6.8c8.1,0,14.7-1.9,20-5.6c5.7-4.1,9.3-10.1,10.7-18C167.5,20,160.1,12.5,142.6,12.5z
				 M147.7,34.9c-1.5,8.4-6.2,12.6-14.1,12.6h-4.3l4.3-24.4h3.4C145.5,23.1,149.1,27.1,147.7,34.9z"/>
		</g>
	</g>
	<path class="st1" d="M250.8,59.1c0,10.5-1.1,21.1-2.5,24.3c-1.2,2.6-15.2,5-30.2,5c-15,0-29-2.4-30.2-5c-1.4-3.1-2.4-12.9-2.5-23
		c0-1,0-1.9,0-2.9c0.1-10,1.2-19.6,2.5-22.6c1.2-2.6,15.2-5,30.2-5c15,0,29,2.4,30.2,5C249.8,37.9,250.8,48.5,250.8,59.1L250.8,59.1
		z M173,59.1c0.1-12.3,1.8-24.5,4.7-27.6c2.7-3,24.7-6.1,40.4-6.1c7.1,0,15.6,0.6,23,1.7c2.1,0.2,3.9,0.1,4.7-0.1
		c3.9-1.1,3.9-4.4,4.3-8.9c0.1-1.4-0.3-3.4,1.1-3.6c1.4-0.3,3.3,0.6,4.5,0.9c1.2,0.4,1.4,0.7,1.8,1.8c1.7,4.8,2.4,8.7,3,13.5
		c3.9,1.3,9.4,3.6,12.1,5.3c1.3,0.8,1.5,1.8,1.7,2.9c0.3,2.6-2,1.9-3.6,1.3c-3-1.1-6.1-2.3-9.1-3.4c0,0.1,0,0.3,0,0.4
		c0.5,3.9,1.1,9.3,1.3,15.3c0.2,4.8,0.3,9.6,0,14.4c-0.6,9.3-2.2,17.4-4.5,19.8c-2.7,3-24.7,6.1-40.4,6.1c-15.7,0-37.7-3.1-40.4-6.1
		C174.9,83.5,173.2,71.4,173,59.1L173,59.1z M173,59.1C173,59,173,59,173,59.1C173,59.1,173,59.2,173,59.1L173,59.1z M185.7,11.8
		c0-0.8,8.7-1.3,9.2-0.4c1.9,3.6,10.2,9.3,16.2-0.4c0.1-0.2,3.1-0.1,3,0.4C211.2,27.7,185.9,26.3,185.7,11.8L185.7,11.8z"/>
	<path class="st1" d="M207.7,88c3.3,0.2,6.9,0.4,10.4,0.4c15,0,29-2.4,30.2-5c1.4-3.2,2.5-13.7,2.5-24.3c0-10.6-1.1-21.1-2.5-24.3
		c-0.9-1.8-8.4-3.7-18.2-4.5l1.7-4.3c3.2,0.2,6.4,0.6,9.3,1c2.1,0.2,3.9,0.1,4.7-0.1c3.9-1.1,3.9-4.4,4.3-8.9
		c0.1-1.4-0.3-3.4,1.1-3.6c1.4-0.3,3.3,0.6,4.5,0.9c1.2,0.4,1.4,0.7,1.8,1.8c1.7,4.8,2.4,8.7,3,13.5c3.9,1.3,9.4,3.6,12.1,5.3
		c1.3,0.8,1.5,1.8,1.7,2.9c0.3,2.6-2,1.9-3.6,1.3c-3-1.1-6.1-2.3-9.1-3.4c0,0.1,0,0.3,0,0.4c0.5,3.9,1.1,9.3,1.3,15.3
		c0.1,2.2,0.2,4.3,0.2,6.5c0,0,0,0.1,0,0.1c0,0,0,0.1,0,0.1c0,2,0,4-0.1,6c0,0,0,0.1,0,0.1c0,0.1,0,0.2,0,0.3c0,0,0,0.1,0,0.1
		c-0.6,9.7-2.1,18.4-4.5,20.9c-2.7,3-24.7,6.1-40.4,6.1c-3.8,0-8.1-0.2-12.4-0.5L207.7,88L207.7,88z"/>
	<g>
		<g>
			<polygon class="st0" points="240.5,40.1 228,65.6 224.4,40.1 189.9,40.1 188.9,45.8 197.4,45.8 191.7,78.1 200.2,78.1 
				205.9,45.8 214.2,45.8 215,41.2 220.7,78.1 227.9,78.1 247.4,40.1 			"/>
		</g>
	</g>
</g>
</svg>
