<svg xmlns="http://www.w3.org/2000/svg" version="1.1" xmlns:xlink="http://www.w3.org/1999/xlink" xmlns:svgjs="http://svgjs.dev/svgjs" width="1440" height="560" preserveAspectRatio="none" viewBox="0 0 1440 560"><g mask="url(&quot;#SvgjsMask1000&quot;)" fill="none"><rect width="1440" height="560" x="0" y="0" fill="#0e2a47"></rect><path d="M86.39 314.37L151.35 351.87L151.35 426.87L86.39 464.37L21.44 426.87L21.44 351.87zM86.39 539.37L151.35 576.87L151.35 651.87L86.39 689.37L21.44 651.87L21.44 576.87zM151.35 -23.13L216.3 14.37L216.3 89.37L151.35 126.87L86.39 89.37L86.39 14.37zM670.98 -23.13L735.93 14.37L735.93 89.37L670.98 126.87L606.02 89.37L606.02 14.37zM670.98 201.87L735.93 239.37L735.93 314.37L670.98 351.87L606.02 314.37L606.02 239.37zM1255.56 539.37L1320.51 576.87L1320.51 651.87L1255.56 689.37L1190.61 651.87L1190.61 576.87zM1320.52 201.87L1385.47 239.37L1385.47 314.37L1320.52 351.87L1255.56 314.37L1255.56 239.37z" stroke="#03305d" stroke-width="2"></path><path d="M78.89 314.37 a7.5 7.5 0 1 0 15 0 a7.5 7.5 0 1 0 -15 0zM143.85 351.87 a7.5 7.5 0 1 0 15 0 a7.5 7.5 0 1 0 -15 0zM143.85 426.87 a7.5 7.5 0 1 0 15 0 a7.5 7.5 0 1 0 -15 0zM78.89 464.37 a7.5 7.5 0 1 0 15 0 a7.5 7.5 0 1 0 -15 0zM13.94 426.87 a7.5 7.5 0 1 0 15 0 a7.5 7.5 0 1 0 -15 0zM13.94 351.87 a7.5 7.5 0 1 0 15 0 a7.5 7.5 0 1 0 -15 0zM78.89 539.37 a7.5 7.5 0 1 0 15 0 a7.5 7.5 0 1 0 -15 0zM143.85 576.87 a7.5 7.5 0 1 0 15 0 a7.5 7.5 0 1 0 -15 0zM143.85 651.87 a7.5 7.5 0 1 0 15 0 a7.5 7.5 0 1 0 -15 0zM78.89 689.37 a7.5 7.5 0 1 0 15 0 a7.5 7.5 0 1 0 -15 0zM13.94 651.87 a7.5 7.5 0 1 0 15 0 a7.5 7.5 0 1 0 -15 0zM13.94 576.87 a7.5 7.5 0 1 0 15 0 a7.5 7.5 0 1 0 -15 0zM143.85 -23.13 a7.5 7.5 0 1 0 15 0 a7.5 7.5 0 1 0 -15 0zM208.8 14.37 a7.5 7.5 0 1 0 15 0 a7.5 7.5 0 1 0 -15 0zM208.8 89.37 a7.5 7.5 0 1 0 15 0 a7.5 7.5 0 1 0 -15 0zM143.85 126.87 a7.5 7.5 0 1 0 15 0 a7.5 7.5 0 1 0 -15 0zM78.89 89.37 a7.5 7.5 0 1 0 15 0 a7.5 7.5 0 1 0 -15 0zM78.89 14.37 a7.5 7.5 0 1 0 15 0 a7.5 7.5 0 1 0 -15 0zM663.48 -23.13 a7.5 7.5 0 1 0 15 0 a7.5 7.5 0 1 0 -15 0zM728.43 14.37 a7.5 7.5 0 1 0 15 0 a7.5 7.5 0 1 0 -15 0zM728.43 89.37 a7.5 7.5 0 1 0 15 0 a7.5 7.5 0 1 0 -15 0zM663.48 126.87 a7.5 7.5 0 1 0 15 0 a7.5 7.5 0 1 0 -15 0zM598.52 89.37 a7.5 7.5 0 1 0 15 0 a7.5 7.5 0 1 0 -15 0zM598.52 14.37 a7.5 7.5 0 1 0 15 0 a7.5 7.5 0 1 0 -15 0zM663.48 201.87 a7.5 7.5 0 1 0 15 0 a7.5 7.5 0 1 0 -15 0zM728.43 239.37 a7.5 7.5 0 1 0 15 0 a7.5 7.5 0 1 0 -15 0zM728.43 314.37 a7.5 7.5 0 1 0 15 0 a7.5 7.5 0 1 0 -15 0zM663.48 351.87 a7.5 7.5 0 1 0 15 0 a7.5 7.5 0 1 0 -15 0zM598.52 314.37 a7.5 7.5 0 1 0 15 0 a7.5 7.5 0 1 0 -15 0zM598.52 239.37 a7.5 7.5 0 1 0 15 0 a7.5 7.5 0 1 0 -15 0zM1248.06 539.37 a7.5 7.5 0 1 0 15 0 a7.5 7.5 0 1 0 -15 0zM1313.01 576.87 a7.5 7.5 0 1 0 15 0 a7.5 7.5 0 1 0 -15 0zM1313.01 651.87 a7.5 7.5 0 1 0 15 0 a7.5 7.5 0 1 0 -15 0zM1248.06 689.37 a7.5 7.5 0 1 0 15 0 a7.5 7.5 0 1 0 -15 0zM1183.11 651.87 a7.5 7.5 0 1 0 15 0 a7.5 7.5 0 1 0 -15 0zM1183.11 576.87 a7.5 7.5 0 1 0 15 0 a7.5 7.5 0 1 0 -15 0zM1313.02 201.87 a7.5 7.5 0 1 0 15 0 a7.5 7.5 0 1 0 -15 0zM1377.97 239.37 a7.5 7.5 0 1 0 15 0 a7.5 7.5 0 1 0 -15 0zM1377.97 314.37 a7.5 7.5 0 1 0 15 0 a7.5 7.5 0 1 0 -15 0zM1313.02 351.87 a7.5 7.5 0 1 0 15 0 a7.5 7.5 0 1 0 -15 0zM1248.06 314.37 a7.5 7.5 0 1 0 15 0 a7.5 7.5 0 1 0 -15 0zM1248.06 239.37 a7.5 7.5 0 1 0 15 0 a7.5 7.5 0 1 0 -15 0z" fill="#03305d"></path><path d="M64.06 36.74L107.37 61.74L107.37 111.74L64.06 136.74L20.76 111.74L20.76 61.74zM20.76 111.74L64.06 136.74L64.06 186.74L20.76 211.74L-22.54 186.74L-22.54 136.74zM20.76 261.74L64.06 286.74L64.06 336.74L20.76 361.74L-22.54 336.74L-22.54 286.74zM20.76 411.74L64.06 436.74L64.06 486.74L20.76 511.74L-22.54 486.74L-22.54 436.74zM107.37 111.74L150.67 136.74L150.67 186.74L107.37 211.74L64.06 186.74L64.06 136.74zM107.37 411.74L150.67 436.74L150.67 486.74L107.37 511.74L64.06 486.74L64.06 436.74zM150.67 486.74L193.97 511.74L193.97 561.74L150.67 586.74L107.37 561.74L107.37 511.74zM237.27 186.74L280.57 211.74L280.57 261.74L237.27 286.74L193.97 261.74L193.97 211.74zM237.27 486.74L280.57 511.74L280.57 561.74L237.27 586.74L193.97 561.74L193.97 511.74zM280.57 -38.26L323.88 -13.26L323.88 36.74L280.57 61.74L237.27 36.74L237.27 -13.26zM323.88 36.74L367.18 61.74L367.18 111.74L323.88 136.74L280.57 111.74L280.57 61.74zM323.88 186.74L367.18 211.74L367.18 261.74L323.88 286.74L280.57 261.74L280.57 211.74zM280.57 411.74L323.88 436.74L323.88 486.74L280.57 511.74L237.27 486.74L237.27 436.74zM410.48 36.74L453.79 61.74L453.79 111.74L410.48 136.74L367.18 111.74L367.18 61.74zM367.18 111.74L410.48 136.74L410.48 186.74L367.18 211.74L323.88 186.74L323.88 136.74zM410.48 186.74L453.79 211.74L453.79 261.74L410.48 286.74L367.18 261.74L367.18 211.74zM453.79 -38.26L497.09 -13.26L497.09 36.74L453.79 61.74L410.48 36.74L410.48 -13.26zM497.09 486.74L540.39 511.74L540.39 561.74L497.09 586.74L453.79 561.74L453.79 511.74zM670.3 36.74L713.6 61.74L713.6 111.74L670.3 136.74L627 111.74L627 61.74zM670.3 336.74L713.6 361.74L713.6 411.74L670.3 436.74L627 411.74L627 361.74zM713.6 411.74L756.9 436.74L756.9 486.74L713.6 511.74L670.3 486.74L670.3 436.74zM756.9 486.74L800.21 511.74L800.21 561.74L756.9 586.74L713.6 561.74L713.6 511.74zM800.21 -38.26L843.51 -13.26L843.51 36.74L800.21 61.74L756.9 36.74L756.9 -13.26zM800.21 411.74L843.51 436.74L843.51 486.74L800.21 511.74L756.9 486.74L756.9 436.74zM930.11 186.74L973.42 211.74L973.42 261.74L930.11 286.74L886.81 261.74L886.81 211.74zM886.81 411.74L930.11 436.74L930.11 486.74L886.81 511.74L843.51 486.74L843.51 436.74zM1016.72 336.74L1060.02 361.74L1060.02 411.74L1016.72 436.74L973.42 411.74L973.42 361.74zM1060.02 411.74L1103.32 436.74L1103.32 486.74L1060.02 511.74L1016.72 486.74L1016.72 436.74zM1146.63 -38.26L1189.93 -13.26L1189.93 36.74L1146.63 61.74L1103.32 36.74L1103.32 -13.26zM1189.93 36.74L1233.23 61.74L1233.23 111.74L1189.93 136.74L1146.63 111.74L1146.63 61.74zM1276.53 36.74L1319.84 61.74L1319.84 111.74L1276.53 136.74L1233.23 111.74L1233.23 61.74zM1276.53 186.74L1319.84 211.74L1319.84 261.74L1276.53 286.74L1233.23 261.74L1233.23 211.74zM1276.53 336.74L1319.84 361.74L1319.84 411.74L1276.53 436.74L1233.23 411.74L1233.23 361.74zM1319.84 411.74L1363.14 436.74L1363.14 486.74L1319.84 511.74L1276.53 486.74L1276.53 436.74zM1406.44 -38.26L1449.74 -13.26L1449.74 36.74L1406.44 61.74L1363.14 36.74L1363.14 -13.26zM1449.74 486.74L1493.05 511.74L1493.05 561.74L1449.74 586.74L1406.44 561.74L1406.44 511.74z" stroke="rgba(6, 80, 156, 0.93)" stroke-width="2"></path></g><defs><mask id="SvgjsMask1000"><rect width="1440" height="560" fill="#ffffff"></rect></mask></defs></svg>